<svg width="1237" height="773" viewBox="0 0 1237 773" fill="none" xmlns="http://www.w3.org/2000/svg">
<g clip-path="url(#clip0)">
<path d="M152.171 534.692C678.103 -58.6683 1004.5 437.782 1213.44 739.317C1226.37 758.327 1248.34 734.869 1229.28 682.952C1159.67 482.874 931.548 0.615967 633.788 0.615967C335.821 0.615967 158.558 386.038 136.383 453.281C114.358 519.908 129.923 556.721 152.176 534.692H152.171ZM4.46837 728.118C18.5885 771.719 90.348 779.862 135.504 766.704C180.718 753.928 248.621 688.398 242.718 649.047C239.693 634.263 233.509 640.928 202.441 647.544C171.259 654.936 84.0026 681.03 65.8184 624.666C47.5459 567.92 93.6533 297.58 102.078 253.979C110.211 210.378 98.9594 199.142 83.6855 228.181C68.6144 257.207 41.3252 332.372 23.0111 438.756C4.82696 545.67 -6.23736 694.854 4.47357 728.118H4.46837Z" stroke="#DC0501" stroke-miterlimit="10"/>
<path d="M633.788 1.84798C703.012 1.84798 773.233 28.2376 842.503 80.2654C901.515 124.618 960.168 187.697 1016.82 267.814C1063.35 333.634 1107.38 408.936 1148.4 492.866C1190.94 579.969 1217.08 649.848 1228.88 683.827C1235.33 701.383 1237.63 717.572 1235.36 729.412C1233.55 738.849 1228.93 744.713 1223.3 744.713C1219.92 744.722 1216.6 742.523 1213.71 738.356L1202.32 721.909C1168.84 673.515 1130.89 618.654 1090.24 565.69C1043.67 505.026 1000.33 455.647 957.715 414.719C905.407 364.466 854.727 327.246 802.778 300.808C743.813 270.798 683.672 255.7 623.363 255.765C587.977 255.826 552.622 260.804 517.481 270.673C479.23 281.544 441.274 297.623 403.802 318.832C362.588 342.232 321.945 370.957 282.053 404.875C237.801 442.576 194.378 485.533 151.948 533.584V533.584C147.743 537.723 143.742 539.83 140.062 539.83C134.08 539.83 129.637 534.249 127.553 524.097C124.165 507.613 127.553 482.073 136.809 454.008C142.609 436.427 157.898 399.984 181.892 355.127C202.327 316.935 236.268 259.511 281.923 202.801C330.151 143.06 381.027 96.1989 433.617 63.0789C497.94 22.4225 565.287 1.84798 633.788 1.84798ZM98.341 213.261C100.539 213.261 102.218 215.171 103.205 218.756C105.076 225.556 104.505 237.876 101.605 253.412C96.9586 277.461 83.4154 356.31 73.4372 433.988C67.601 479.437 63.7761 518.048 62.0767 548.725C59.9979 586.264 61.1152 612.05 65.4027 625.368C69.5915 638.354 77.7039 647.914 89.5166 653.803C99.3544 658.731 112.025 661.195 127.179 661.195C151.932 661.195 178.005 654.739 195.259 650.477C197.909 649.824 200.336 649.245 202.483 648.715C210.029 647.101 216.125 645.499 221.02 644.193C227.257 642.543 231.794 641.347 234.938 641.347C239.137 641.347 240.982 643.405 242.24 649.466C242.92 654.062 242.51 659.323 241.029 664.928C236.325 682.903 221.083 704.944 199.214 725.42C178.151 745.132 154.312 760.089 135.442 765.411C121.281 769.336 107.033 771.249 92.7751 771.14C72.507 771.14 53.1223 767.444 38.1343 760.742C21.0207 753.078 9.55106 741.571 4.91537 727.477L4.88419 727.366C-0.000945551 712.176 -0.551823 669.869 3.40826 611.249C7.19684 555.193 14.7064 490.857 23.4945 439.175C42.5049 328.713 70.4802 255.137 84.0078 229.154C89.3815 218.94 94.4693 213.323 98.341 213.323V213.261ZM633.788 0.615967C335.821 0.615967 158.558 386.05 136.383 453.281C118.713 506.824 125.251 541.086 140.047 541.086C144.228 540.861 148.349 538.689 152.176 534.692V534.692C331.289 332.643 487.317 256.911 623.389 256.911C886.875 256.911 1075.66 540.483 1213.44 739.317C1216.41 743.617 1219.83 745.881 1223.31 745.859C1234.38 745.859 1243.91 722.796 1229.28 683.026C1159.67 482.874 931.548 0.615967 633.788 0.615967ZM98.341 212.029C94.5576 212.029 89.4023 217.265 83.6856 228.131C68.6144 257.157 41.3252 332.322 23.0112 438.706C4.82702 545.67 -6.23729 694.854 4.46844 728.118C14.6025 759.411 54.4164 772.47 92.7751 772.47C107.054 772.571 121.322 770.658 135.504 766.741C180.718 753.965 248.621 688.435 242.718 649.084C241.377 642.555 239.412 640.214 234.922 640.214C229.299 640.214 219.716 643.91 202.42 647.606C186.461 651.388 155.752 660.086 127.163 660.086C99.9573 660.086 74.6741 652.214 65.8029 624.728C47.5304 567.981 93.6378 297.641 102.062 254.04C107.15 226.764 104.661 212.152 98.3254 212.152L98.341 212.029Z" fill="#DC0501"/>
</g>
<defs>
<clipPath id="clip0">
<rect width="1237" height="773" fill="white"/>
</clipPath>
</defs>
</svg>
