<svg width="38" height="629" viewBox="0 0 38 629" fill="none" xmlns="http://www.w3.org/2000/svg">
<path d="M0.106993 17.9876C0.106993 25.7426 4.38399 31.4766 11.763 34.2026L12.656 30.1606C7.39199 28.0456 4.19599 23.5806 4.19599 17.9406C4.19599 10.3266 10.024 4.92165 18.39 4.92165C26.85 4.92165 33.054 10.5146 33.054 18.4106C33.054 23.4866 30.516 27.5287 26.192 29.7376L27.085 34.0147C33.43 31.2417 37.19 25.5547 37.19 18.5046C37.19 8.21165 29.059 0.550648 18.202 0.550648C7.53299 0.550647 0.106994 7.78865 0.106993 17.9876ZM0.999992 39.2247L0.999991 63.8527L5.04199 63.8527L5.04199 43.3137L36.344 43.3137L36.344 39.2247L0.999992 39.2247ZM0.999991 68.708L0.999991 72.844L36.344 72.844L36.344 68.708L0.999991 68.708ZM0.10699 95.7855C0.10699 103.54 4.38399 109.275 11.763 112L12.656 107.959C7.39199 105.843 4.19599 101.378 4.19599 95.7385C4.19599 88.1245 10.024 82.7195 18.39 82.7195C26.85 82.7195 33.054 88.3125 33.054 96.2085C33.054 101.285 30.516 105.327 26.192 107.536L27.085 111.813C33.43 109.04 37.19 103.353 37.19 96.3025C37.19 86.0095 29.059 78.3485 18.202 78.3485C7.53299 78.3485 0.10699 85.5865 0.10699 95.7855ZM0.999989 117.023L0.999989 121.112L13.596 121.112L19.565 127.457L0.999988 141.416L0.999988 146.539L22.432 130.418L36.344 145.082L36.344 139.677L18.813 121.112L36.344 121.112L36.344 117.023L0.999989 117.023ZM0.999987 163.839L0.999987 167.881L17.074 167.881L17.074 187.527L0.999986 187.527L0.999986 191.569L36.344 191.569L36.344 187.527L21.022 187.527L21.022 167.881L36.344 167.881L36.344 163.839L0.999987 163.839ZM0.999985 197.482L0.999984 222.533L5.04198 222.533L5.04199 201.524L17.168 201.524L17.168 220.559L21.163 220.559L21.163 201.524L32.349 201.524L32.349 222.11L36.344 222.11L36.344 197.482L0.999985 197.482ZM20.223 231.542L32.349 231.542L32.349 242.07C32.349 246.629 29.858 249.355 26.38 249.355C22.714 249.355 20.223 246.347 20.223 242.07L20.223 231.542ZM0.999984 227.5L0.999984 231.542L16.228 231.542L16.228 241.741C16.228 247.757 4.52498 247.428 0.999983 249.778L0.999983 254.384C8.70798 250.389 14.724 251.94 17.356 247.428C19.001 251.423 22.244 253.491 26.192 253.491C31.832 253.491 36.344 249.214 36.344 242.164L36.344 227.5L0.999984 227.5ZM0.999983 259.354L0.999982 284.405L5.04198 284.405L5.04198 263.396L17.168 263.396L17.168 282.431L21.163 282.431L21.163 263.396L32.349 263.396L32.349 283.982L36.344 283.982L36.344 259.354L0.999983 259.354ZM0.99998 313.191L0.99998 317.233L32.349 317.233L32.349 329.453L36.344 329.453L36.344 300.971L32.349 300.971L32.349 313.191L0.99998 313.191ZM0.106979 349.098C0.106978 359.203 7.90898 366.347 18.531 366.347C28.965 366.347 37.19 359.579 37.19 349.098C37.19 338.57 29.012 331.708 18.531 331.708C7.90898 331.708 0.106979 338.946 0.106979 349.098ZM4.10198 349.098C4.10198 341.625 10.071 336.126 18.578 336.126C26.85 336.126 33.148 341.202 33.148 349.098C33.148 356.994 26.85 362.023 18.578 362.023C10.024 362.023 4.10198 356.524 4.10198 349.098ZM0.106976 401.377C0.106976 409.132 4.38398 414.866 11.763 417.592L12.656 413.55C7.39198 411.435 4.19598 406.97 4.19598 401.33C4.19598 393.716 10.024 388.311 18.39 388.311C26.85 388.311 33.054 393.904 33.054 401.8C33.054 406.876 30.516 410.918 26.192 413.127L27.085 417.404C33.43 414.631 37.19 408.944 37.19 401.894C37.19 391.601 29.059 383.94 18.202 383.94C7.53298 383.94 0.106977 391.178 0.106976 401.377ZM0.106975 438.829C0.106974 448.934 7.90897 456.078 18.531 456.078C28.965 456.078 37.19 449.31 37.19 438.829C37.19 428.301 29.012 421.439 18.531 421.439C7.90898 421.439 0.106975 428.677 0.106975 438.829ZM4.10197 438.829C4.10198 431.356 10.071 425.857 18.578 425.857C26.85 425.857 33.148 430.933 33.148 438.829C33.148 446.725 26.85 451.754 18.578 451.754C10.024 451.754 4.10197 446.255 4.10197 438.829ZM0.999974 460.756L0.999974 464.845L30.375 464.845L0.999973 483.833L0.999973 488.815L36.344 488.815L36.344 484.773L7.10997 484.773L36.344 465.832L36.344 460.756L0.999974 460.756ZM0.999972 504.496L0.999972 508.538L32.349 508.538L32.349 520.758L36.344 520.758L36.344 492.276L32.349 492.276L32.349 504.496L0.999972 504.496ZM0.999971 524.893L0.999971 529.029L36.344 529.029L36.344 524.893L0.999971 524.893ZM0.999971 535.708L0.999971 539.797L30.375 539.797L0.99997 558.785L0.999969 563.767L36.344 563.767L36.344 559.725L7.10997 559.725L36.344 540.784L36.344 535.708L0.999971 535.708ZM0.106969 583.349C0.106968 591.527 4.71297 597.214 13.972 597.214L36.438 597.214L36.438 593.125L13.878 593.125C7.10997 593.125 4.14897 589.271 4.14897 583.349C4.14897 577.239 7.29797 573.808 13.925 573.808L36.438 573.808L36.438 569.719L14.019 569.719C4.66597 569.719 0.106969 575.265 0.106969 583.349ZM0.999968 603.179L0.999967 628.23L5.04197 628.23L5.04197 607.221L17.168 607.221L17.168 626.256L21.163 626.256L21.163 607.221L32.349 607.221L32.349 627.807L36.344 627.807L36.344 603.179L0.999968 603.179Z" fill="black"/>
</svg>
