<svg width="1363" height="863" viewBox="0 0 1363 863" fill="none" xmlns="http://www.w3.org/2000/svg">
<rect x="602" y="116" width="471" height="197" transform="rotate(90 602 116)" fill="url(#paint0_radial)"/>
<rect x="1236" y="79" width="263" height="109" transform="rotate(90 1236 79)" fill="url(#paint1_radial)"/>
<rect x="581" y="256" width="285" height="118" transform="rotate(90 581 256)" fill="url(#paint2_radial)"/>
<rect x="333" y="79" width="801" height="333" transform="rotate(90 333 79)" fill="url(#paint3_radial)"/>
<path d="M784.5 107.5L527 407.5" stroke="#D6D6D6"/>
<path d="M1185 208.5L525 407" stroke="#D6D6D6"/>
<path d="M143.78 486.34V483.68L146.88 482.38L141.56 474.62L142.98 474.04L146.24 475.38L146.88 473.9L143.78 472.62V469.96H142.16V472.62L139.08 473.9L144.4 481.62L142.98 482.22L139.72 480.86L139.08 482.38L142.16 483.68V486.34H143.78ZM155.214 471.26L152.054 469.96L147.974 471.64L148.594 473.14L152.054 471.72L153.974 472.5L154.754 474.42L154.014 476.22H152.034V477.84H154.074L154.754 479.5L153.974 481.42L152.054 482.2L149.194 481.02L148.574 482.54L152.034 483.98H152.074L155.234 482.68L156.534 479.52L155.474 476.98L156.534 474.44L155.214 471.26ZM167.496 482.38H163.376L160.936 481.36L166.696 473L165.976 471.26L162.816 469.96L159.656 471.26L158.596 473.8L160.116 474.42L160.896 472.5L162.816 471.72L164.736 472.5L164.856 472.8L158.456 482.12L162.976 484H167.496V482.38ZM174.518 484V471.58H179.198V469.96H168.238V471.58H172.898V484H174.518ZM188.96 484H192.42V469.96H190.8V482.38H189.98L184.12 469.96H180.66V484H182.28V471.58H183.08L188.96 484Z" fill="black"/>
<path d="M474.149 258.34V255.68L477.249 254.38L471.929 246.62L473.349 246.04L476.609 247.38L477.249 245.9L474.149 244.62V241.96H472.529V244.62L469.449 245.9L474.769 253.62L473.349 254.22L470.089 252.86L469.449 254.38L472.529 255.68V258.34H474.149ZM483.743 241.96L478.803 242.94L479.143 244.52L482.123 243.94V256H483.743V241.96ZM493.645 241.96L488.705 242.94L489.045 244.52L492.025 243.94V256H493.645V241.96ZM498.607 256H500.227V254.02H498.607V256ZM509.607 243.26L506.447 241.96L503.287 243.26L501.967 246.44L503.267 249.6L506.447 250.92L507.467 250.48L505.447 255.36L506.987 256L510.927 246.44L509.607 243.26ZM508.367 248.34L506.447 249.12L504.527 248.34L503.747 246.42L504.527 244.5L506.447 243.72L508.367 244.5L509.147 246.42L508.367 248.34ZM518.149 256V243.58H522.829V241.96H511.869V243.58H516.529V256H518.149ZM532.591 256H536.051V241.96H534.431V254.38H533.611L527.751 241.96H524.291V256H525.911V243.58H526.711L532.591 256Z" fill="black"/>
<path d="M497.6 407.34V404.68L500.7 403.38L495.38 395.62L496.8 395.04L500.06 396.38L500.7 394.9L497.6 393.62V390.96H495.98V393.62L492.9 394.9L498.22 402.62L496.8 403.22L493.54 401.86L492.9 403.38L495.98 404.68V407.34H497.6ZM509.034 392.26L505.874 390.96L501.794 392.64L502.414 394.14L505.874 392.72L507.794 393.5L508.574 395.42L507.834 397.22H505.854V398.84H507.894L508.574 400.5L507.794 402.42L505.874 403.2L503.014 402.02L502.394 403.54L505.854 404.98H505.894L509.054 403.68L510.354 400.52L509.294 397.98L510.354 395.44L509.034 392.26ZM512.156 405H513.776V403.02H512.156V405ZM523.156 392.26L519.996 390.96L516.836 392.26L515.516 395.44L516.816 398.6L519.996 399.92L521.016 399.48L518.996 404.36L520.536 405L524.476 395.44L523.156 392.26ZM521.916 397.34L519.996 398.12L518.076 397.34L517.296 395.42L518.076 393.5L519.996 392.72L521.916 393.5L522.696 395.42L521.916 397.34ZM531.698 405V392.58H536.378V390.96H525.418V392.58H530.078V405H531.698ZM546.14 405H549.6V390.96H547.98V403.38H547.16L541.3 390.96H537.84V405H539.46V392.58H540.26L546.14 405Z" fill="black"/>
<path d="M1157.1 218.34V215.68L1160.2 214.38L1154.88 206.62L1156.3 206.04L1159.56 207.38L1160.2 205.9L1157.1 204.62V201.96H1155.48V204.62L1152.4 205.9L1157.72 213.62L1156.3 214.22L1153.04 212.86L1152.4 214.38L1155.48 215.68V218.34H1157.1ZM1168.53 203.26L1165.37 201.96L1161.29 203.64L1161.91 205.14L1165.37 203.72L1167.29 204.5L1168.07 206.42L1167.33 208.22H1165.35V209.84H1167.39L1168.07 211.5L1167.29 213.42L1165.37 214.2L1162.51 213.02L1161.89 214.54L1165.35 215.98H1165.39L1168.55 214.68L1169.85 211.52L1168.79 208.98L1169.85 206.44L1168.53 203.26ZM1171.66 216H1173.28V214.02H1171.66V216ZM1178.76 216L1182.98 201.96H1175.02V203.58H1180.78L1177.16 215.52L1178.76 216ZM1191.2 216V203.58H1195.88V201.96H1184.92V203.58H1189.58V216H1191.2ZM1205.64 216H1209.1V201.96H1207.48V214.38H1206.66L1200.8 201.96H1197.34V216H1198.96V203.58H1199.76L1205.64 216Z" fill="black"/>
<path d="M5.94 18H7.832V3.326H13.552V1.456H0.22V3.326H5.94V18ZM15.0695 17.978H16.9835V10.52C17.4235 8.958 18.8535 7.748 20.7235 7.748C22.1535 7.748 23.1435 8.452 23.1435 10.41V17.978H25.0355V10.3C25.0355 7.396 23.5175 5.9 21.0315 5.9C19.6895 5.9 18.2375 6.34 16.9835 7.616V1.368H15.0695V17.978ZM29.0663 3.942C29.8143 3.942 30.4083 3.348 30.4083 2.6C30.4083 1.852 29.8143 1.258 29.0663 1.258C28.3183 1.258 27.7243 1.852 27.7243 2.6C27.7243 3.348 28.3183 3.942 29.0663 3.942ZM28.1203 18H30.0123V6.34H28.1203V18ZM37.4744 18.264C40.0704 18.264 42.1384 16.856 42.1384 14.722C42.1384 12.83 40.5104 11.774 37.7604 11.07C36.0004 10.564 34.7684 10.08 34.7684 9.134C34.7684 8.386 35.5604 7.836 37.0784 7.836C38.4204 7.836 39.4764 8.276 39.9604 9.464L41.8084 8.98C41.1484 6.846 39.3884 5.9 37.1664 5.9C34.5704 5.9 32.8544 7.198 32.8544 9.2C32.8544 11.246 34.6804 12.104 37.0784 12.83C38.9044 13.336 40.1804 13.908 40.1804 14.876C40.1804 15.888 38.8164 16.416 37.4524 16.416C35.9564 16.416 34.8344 15.8 34.4164 14.304L32.5024 14.744C33.2064 17.12 35.1204 18.264 37.4744 18.264ZM52.1835 3.942C52.9315 3.942 53.5255 3.348 53.5255 2.6C53.5255 1.852 52.9315 1.258 52.1835 1.258C51.4355 1.258 50.8415 1.852 50.8415 2.6C50.8415 3.348 51.4355 3.942 52.1835 3.942ZM51.2375 18H53.1295V6.34H51.2375V18ZM60.5916 18.264C63.1876 18.264 65.2556 16.856 65.2556 14.722C65.2556 12.83 63.6276 11.774 60.8776 11.07C59.1176 10.564 57.8856 10.08 57.8856 9.134C57.8856 8.386 58.6776 7.836 60.1956 7.836C61.5376 7.836 62.5936 8.276 63.0776 9.464L64.9256 8.98C64.2656 6.846 62.5056 5.9 60.2836 5.9C57.6876 5.9 55.9716 7.198 55.9716 9.2C55.9716 11.246 57.7976 12.104 60.1956 12.83C62.0216 13.336 63.2976 13.908 63.2976 14.876C63.2976 15.888 61.9336 16.416 60.5696 16.416C59.0736 16.416 57.9516 15.8 57.5336 14.304L55.6196 14.744C56.3236 17.12 58.2376 18.264 60.5916 18.264ZM78.3367 18.22C78.8207 18.22 79.3707 18.176 79.8107 18.132V16.328H78.4247C77.7867 16.328 77.3467 16.13 77.3467 15.184V7.946H79.7007V6.12H77.3467V2.798H75.4547V6.12H73.5187V7.946H75.4547V15.426C75.4547 17.428 76.2907 18.22 78.3367 18.22ZM81.9933 17.978H83.9073V10.52C84.3473 8.958 85.7773 7.748 87.6473 7.748C89.0773 7.748 90.0673 8.452 90.0673 10.41V17.978H91.9593V10.3C91.9593 7.396 90.4413 5.9 87.9553 5.9C86.6133 5.9 85.1613 6.34 83.9073 7.616V1.368H81.9933V17.978ZM99.3781 18.264C101.6 18.264 103.448 16.988 104.372 14.612L102.7 14.084C101.996 15.646 100.852 16.416 99.4661 16.416C97.4201 16.416 96.2321 14.744 96.0561 12.522H104.482V11.642C104.482 8.298 102.458 5.922 99.4001 5.922C96.2101 5.922 94.0981 8.496 94.0981 12.06C94.0981 15.514 96.1001 18.264 99.3781 18.264ZM96.1441 10.718C96.4301 9.046 97.6181 7.748 99.4001 7.748C101.116 7.748 102.26 8.958 102.48 10.718H96.1441ZM112.551 18H123.353V16.064H114.927C115.455 14.854 116.291 13.798 119.107 11.664C122.495 9.068 123.243 7.594 123.243 5.988C123.243 3.524 121.483 1.456 118.161 1.456C114.949 1.456 112.881 3.392 112.529 6.472L114.421 6.824C114.553 4.514 115.851 3.282 118.073 3.282C120.009 3.282 121.285 4.206 121.285 5.944C121.285 7.308 120.493 8.408 117.875 10.41C114.267 13.16 112.771 15.25 112.551 18ZM131.553 18.308C135.293 18.308 137.141 15.338 137.141 10.014C137.141 4.646 135.293 1.676 131.553 1.676C127.813 1.676 125.965 4.646 125.965 10.014C125.965 15.338 127.813 18.308 131.553 18.308ZM131.553 16.504C129.309 16.504 127.879 14.48 127.879 10.014C127.879 5.438 129.287 3.48 131.553 3.48C133.819 3.48 135.227 5.438 135.227 10.014C135.227 14.48 133.797 16.504 131.553 16.504ZM144.723 18.308C148.463 18.308 150.311 15.338 150.311 10.014C150.311 4.646 148.463 1.676 144.723 1.676C140.983 1.676 139.135 4.646 139.135 10.014C139.135 15.338 140.983 18.308 144.723 18.308ZM144.723 16.504C142.479 16.504 141.049 14.48 141.049 10.014C141.049 5.438 142.457 3.48 144.723 3.48C146.989 3.48 148.397 5.438 148.397 10.014C148.397 14.48 146.967 16.504 144.723 16.504ZM151.996 18H162.798V16.064H154.372C154.9 14.854 155.736 13.798 158.552 11.664C161.94 9.068 162.688 7.594 162.688 5.988C162.688 3.524 160.928 1.456 157.606 1.456C154.394 1.456 152.326 3.392 151.974 6.472L153.866 6.824C153.998 4.514 155.296 3.282 157.518 3.282C159.454 3.282 160.73 4.206 160.73 5.944C160.73 7.308 159.938 8.408 157.32 10.41C153.712 13.16 152.216 15.25 151.996 18ZM173.678 3.942C174.426 3.942 175.02 3.348 175.02 2.6C175.02 1.852 174.426 1.258 173.678 1.258C172.93 1.258 172.336 1.852 172.336 2.6C172.336 3.348 172.93 3.942 173.678 3.942ZM172.732 18H174.624V6.34H172.732V18ZM177.686 18H179.6V10.52C180.04 8.958 181.47 7.748 183.34 7.748C184.77 7.748 185.76 8.452 185.76 10.41V18H187.652V10.3C187.652 7.396 186.134 5.9 183.648 5.9C182.306 5.9 180.854 6.34 179.6 7.616V6.12H177.686V18ZM194.917 18.22C197.139 18.22 199.207 16.856 199.867 14.106L198.019 13.666C197.491 15.272 196.457 16.35 195.027 16.35C193.091 16.35 191.683 14.37 191.683 11.994C191.683 9.662 193.025 7.77 195.093 7.77C196.281 7.77 197.403 8.386 197.975 9.904L199.801 9.442C199.053 7.22 197.293 5.9 195.049 5.9C191.925 5.9 189.747 8.474 189.747 11.994C189.747 15.272 191.661 18.22 194.917 18.22ZM207.331 18.264C210.763 18.264 213.403 15.646 213.403 12.104C213.403 8.562 210.763 5.922 207.331 5.922C203.899 5.922 201.259 8.562 201.259 12.104C201.259 15.646 203.899 18.264 207.331 18.264ZM207.331 16.438C205.065 16.438 203.239 14.546 203.239 12.104C203.239 9.662 205.065 7.792 207.331 7.792C209.597 7.792 211.423 9.662 211.423 12.104C211.423 14.546 209.597 16.438 207.331 16.438ZM215.391 18H217.305V10.344C217.613 9.112 218.999 7.726 220.539 7.726C221.661 7.726 222.651 8.452 222.651 10.344V18H224.543V10.278C224.895 8.848 226.435 7.726 227.887 7.726C229.009 7.726 229.933 8.386 229.933 10.3V18H231.825V10.08C231.825 7.506 230.307 5.878 227.997 5.878C226.655 5.878 225.269 6.428 224.037 7.946C223.201 6.538 222.101 5.9 220.759 5.9C219.703 5.9 218.449 6.296 217.305 7.594V6.12H215.391V18ZM239.22 18.264C241.442 18.264 243.29 16.988 244.214 14.612L242.542 14.084C241.838 15.646 240.694 16.416 239.308 16.416C237.262 16.416 236.074 14.744 235.898 12.522H244.324V11.642C244.324 8.298 242.3 5.922 239.242 5.922C236.052 5.922 233.94 8.496 233.94 12.06C233.94 15.514 235.942 18.264 239.22 18.264ZM235.986 10.718C236.272 9.046 237.46 7.748 239.242 7.748C240.958 7.748 242.102 8.958 242.322 10.718H235.986ZM258.399 18.264C261.831 18.264 264.471 15.646 264.471 12.104C264.471 8.562 261.831 5.922 258.399 5.922C254.967 5.922 252.327 8.562 252.327 12.104C252.327 15.646 254.967 18.264 258.399 18.264ZM258.399 16.438C256.133 16.438 254.307 14.546 254.307 12.104C254.307 9.662 256.133 7.792 258.399 7.792C260.665 7.792 262.491 9.662 262.491 12.104C262.491 14.546 260.665 16.438 258.399 16.438ZM268.021 18H269.891V8.144H272.487V6.34H269.891V4.184C269.891 3.304 270.177 2.93 271.431 2.93C271.739 2.93 272.157 2.952 272.597 3.018V1.324C272.025 1.192 271.387 1.126 270.881 1.126C268.901 1.126 268.021 2.138 268.021 3.942V6.34H265.799V8.144H268.021V18ZM4.708 42.264C6.05 42.264 7.436 41.714 8.8 40.196C8.844 41.12 9.592 42.264 10.824 42.264C11.132 42.264 11.44 42.198 11.836 42.066V40.46C11.132 40.702 10.67 40.284 10.67 39.734V34.212C10.67 31.308 8.778 29.9 6.094 29.9C3.916 29.9 1.98 30.846 1.408 32.98L3.278 33.486C3.696 32.298 4.774 31.748 6.16 31.748C7.678 31.748 8.602 32.408 8.602 33.266C8.602 34.542 6.556 34.806 4.268 35.466C2.354 36.06 0.946 37.204 0.946 38.964C0.946 40.856 2.574 42.264 4.708 42.264ZM4.862 40.416C3.784 40.416 2.882 39.844 2.882 38.832C2.882 36.61 7.238 37.138 8.8 35.642V37.776C7.942 39.448 6.27 40.416 4.862 40.416ZM19.0666 42.264C22.1686 42.264 24.1486 39.536 24.1486 36.082C24.1486 32.606 22.1026 29.9 19.0886 29.9C17.7906 29.9 16.5366 30.406 15.5026 31.682V25.368H13.5666V42H15.5026V40.416C16.4706 41.736 17.7246 42.264 19.0666 42.264ZM18.8686 40.394C16.9106 40.394 15.5026 38.59 15.5026 36.236C15.5026 33.882 16.8886 31.858 18.9126 31.858C20.8706 31.858 22.2126 33.75 22.2126 36.126C22.2126 38.48 20.8926 40.394 18.8686 40.394ZM31.6099 42.264C35.0419 42.264 37.6819 39.646 37.6819 36.104C37.6819 32.562 35.0419 29.922 31.6099 29.922C28.1779 29.922 25.5379 32.562 25.5379 36.104C25.5379 39.646 28.1779 42.264 31.6099 42.264ZM31.6099 40.438C29.3439 40.438 27.5179 38.546 27.5179 36.104C27.5179 33.662 29.3439 31.792 31.6099 31.792C33.8759 31.792 35.7019 33.662 35.7019 36.104C35.7019 38.546 33.8759 40.438 31.6099 40.438ZM43.6521 42.22C45.0161 42.22 46.4681 41.802 47.7441 40.328V42H49.6361V30.12H47.7441V37.358C47.3261 39.052 45.7421 40.372 43.7621 40.372C42.3541 40.372 41.5841 39.69 41.5841 37.908V30.12H39.6701V37.908C39.6701 40.724 41.0781 42.22 43.6521 42.22ZM56.6589 42.22C57.1429 42.22 57.6929 42.176 58.1329 42.132V40.328H56.7469C56.1089 40.328 55.6689 40.13 55.6689 39.184V31.946H58.0229V30.12H55.6689V26.798H53.7769V30.12H51.8409V31.946H53.7769V39.426C53.7769 41.428 54.6129 42.22 56.6589 42.22ZM73.4103 27.349L69.7763 25.854L65.0843 27.786L65.7973 29.511L69.7763 27.878L71.9843 28.775L72.8813 30.983L72.0303 33.053H69.7533V34.916H72.0993L72.8813 36.825L71.9843 39.033L69.7763 39.93L66.4873 38.573L65.7743 40.321L69.7533 41.977H69.7993L73.4333 40.482L74.9283 36.848L73.7093 33.927L74.9283 31.006L73.4103 27.349ZM95.7693 35.261L93.7913 30.523L88.9613 28.522L85.5573 29.925V25.854H83.6943V42H85.5573V40.597L88.9613 42L93.8143 39.999L95.7693 35.261ZM93.7223 35.238L92.3653 38.55L88.9613 39.953L85.5573 38.55V31.949L88.9613 30.546L92.3653 31.949L93.7223 35.238ZM98.5856 27.993L99.6436 26.935L98.5856 25.854L97.5046 26.935L98.5856 27.993ZM97.6426 42H99.5056V28.545H97.6426V42ZM102.202 42H104.065V25.854H102.202V42ZM106.762 42H108.625V25.854H106.762V42ZM112.264 27.993L113.322 26.935L112.264 25.854L111.183 26.935L112.264 27.993ZM111.321 42H113.184V28.545H111.321V42ZM128.845 35.261L126.89 30.523L122.06 28.522L117.23 30.523L115.252 35.261L117.207 39.999L122.06 42L126.913 39.999L128.845 35.261ZM126.821 35.238L125.464 38.55L122.06 39.953L118.656 38.55L117.299 35.238L118.656 31.949L122.06 30.546L125.464 31.949L126.821 35.238ZM132.568 31.949L135.972 30.546L139.376 31.949L140.733 35.238V42H142.596V34.847L140.802 30.523L135.972 28.522L132.568 29.925V28.545H130.705V42H132.568V31.949ZM156.169 42H158.083L161.009 32.672L163.869 42H165.783L169.589 30.12H167.587L164.815 39.646L161.955 30.12H159.975L157.115 39.646L154.343 30.12H152.363L156.169 42ZM176.722 42.264C180.154 42.264 182.794 39.646 182.794 36.104C182.794 32.562 180.154 29.922 176.722 29.922C173.29 29.922 170.65 32.562 170.65 36.104C170.65 39.646 173.29 42.264 176.722 42.264ZM176.722 40.438C174.456 40.438 172.63 38.546 172.63 36.104C172.63 33.662 174.456 31.792 176.722 31.792C178.988 31.792 180.814 33.662 180.814 36.104C180.814 38.546 178.988 40.438 176.722 40.438ZM184.782 42H186.674V35.356C186.674 33.376 187.884 32.034 190.634 32.034V30.032C188.764 29.878 187.752 30.406 186.674 31.77V30.12H184.782V42ZM192.302 42H194.216V37.666L196.152 35.774L199.98 42H202.158L197.428 34.476L201.828 30.12H199.386L194.216 35.202V25.368H192.302V42ZM205.095 27.942C205.843 27.942 206.437 27.348 206.437 26.6C206.437 25.852 205.843 25.258 205.095 25.258C204.347 25.258 203.753 25.852 203.753 26.6C203.753 27.348 204.347 27.942 205.095 27.942ZM204.149 42H206.041V30.34H204.149V42ZM209.103 42H211.017V34.52C211.457 32.958 212.887 31.748 214.757 31.748C216.187 31.748 217.177 32.452 217.177 34.41V42H219.069V34.3C219.069 31.396 217.551 29.9 215.065 29.9C213.723 29.9 212.271 30.34 211.017 31.616V30.12H209.103V42ZM226.422 40.02C224.552 40.02 223.1 38.172 223.1 35.862C223.1 33.574 224.53 31.748 226.422 31.748C228.292 31.748 229.656 33.508 229.656 35.884C229.656 38.282 228.226 40.02 226.422 40.02ZM226.444 47.192C229.304 47.192 231.57 45.256 231.57 41.912V30.12H229.656V31.484C228.512 30.142 227.236 29.9 226.29 29.9C223.21 29.9 221.164 32.54 221.164 35.906C221.164 39.272 223.254 41.912 226.246 41.912C227.456 41.912 228.622 41.472 229.656 40.196V41.956C229.656 44.024 228.292 45.344 226.444 45.344C225.19 45.344 224.09 44.728 223.408 43.43L221.626 43.914C222.594 46.158 224.288 47.192 226.444 47.192ZM246.225 40.306C244.157 40.306 242.771 38.128 242.771 35.884C242.771 33.662 244.135 31.77 246.181 31.77C248.249 31.77 249.635 33.684 249.635 36.038C249.635 38.458 248.139 40.306 246.225 40.306ZM240.835 46.928H242.771V40.482C243.805 41.736 245.059 42.264 246.401 42.264C249.459 42.264 251.593 39.558 251.593 36.082C251.593 32.628 249.547 29.9 246.401 29.9C244.993 29.9 243.739 30.45 242.771 31.748V30.12H240.835V46.928ZM258.412 42.264C260.634 42.264 262.482 40.988 263.406 38.612L261.734 38.084C261.03 39.646 259.886 40.416 258.5 40.416C256.454 40.416 255.266 38.744 255.09 36.522H263.516V35.642C263.516 32.298 261.492 29.922 258.434 29.922C255.244 29.922 253.132 32.496 253.132 36.06C253.132 39.514 255.134 42.264 258.412 42.264ZM255.178 34.718C255.464 33.046 256.652 31.748 258.434 31.748C260.15 31.748 261.294 32.958 261.514 34.718H255.178ZM270.996 42.264C274.428 42.264 277.068 39.646 277.068 36.104C277.068 32.562 274.428 29.922 270.996 29.922C267.564 29.922 264.924 32.562 264.924 36.104C264.924 39.646 267.564 42.264 270.996 42.264ZM270.996 40.438C268.73 40.438 266.904 38.546 266.904 36.104C266.904 33.662 268.73 31.792 270.996 31.792C273.262 31.792 275.088 33.662 275.088 36.104C275.088 38.546 273.262 40.438 270.996 40.438ZM284.446 40.306C282.378 40.306 280.992 38.128 280.992 35.884C280.992 33.662 282.356 31.77 284.402 31.77C286.47 31.77 287.856 33.684 287.856 36.038C287.856 38.458 286.36 40.306 284.446 40.306ZM279.056 46.928H280.992V40.482C282.026 41.736 283.28 42.264 284.622 42.264C287.68 42.264 289.814 39.558 289.814 36.082C289.814 32.628 287.768 29.9 284.622 29.9C283.214 29.9 281.96 30.45 280.992 31.748V30.12H279.056V46.928ZM292.035 42H293.927V25.368H292.035V42ZM301.424 42.264C303.646 42.264 305.494 40.988 306.418 38.612L304.746 38.084C304.042 39.646 302.898 40.416 301.512 40.416C299.466 40.416 298.278 38.744 298.102 36.522H306.528V35.642C306.528 32.298 304.504 29.922 301.446 29.922C298.256 29.922 296.144 32.496 296.144 36.06C296.144 39.514 298.146 42.264 301.424 42.264ZM298.19 34.718C298.476 33.046 299.664 31.748 301.446 31.748C303.162 31.748 304.306 32.958 304.526 34.718H298.19ZM310.905 33.97C311.697 33.97 312.357 33.31 312.357 32.518C312.357 31.726 311.697 31.066 310.905 31.066C310.113 31.066 309.453 31.726 309.453 32.518C309.453 33.31 310.113 33.97 310.905 33.97ZM310.905 42.264C311.697 42.264 312.357 41.604 312.357 40.812C312.357 40.02 311.697 39.36 310.905 39.36C310.113 39.36 309.453 40.02 309.453 40.812C309.453 41.604 310.113 42.264 310.905 42.264Z" fill="#01ACB7"/>
<path d="M402.818 11.334L405.766 3.744L408.648 11.334H402.818ZM398.154 18H400.222L402.07 13.182H409.396L411.266 18H413.29L406.866 1.456H404.622L398.154 18ZM414.811 18H416.725V10.52C417.165 8.958 418.595 7.748 420.465 7.748C421.895 7.748 422.885 8.452 422.885 10.41V18H424.777V10.3C424.777 7.396 423.259 5.9 420.773 5.9C419.431 5.9 417.979 6.34 416.725 7.616V6.12H414.811V18ZM432.13 16.394C430.084 16.394 428.786 14.48 428.786 12.126C428.786 9.75 430.106 7.858 432.064 7.858C434.11 7.858 435.496 9.882 435.496 12.236C435.496 14.59 434.11 16.394 432.13 16.394ZM431.91 18.264C433.274 18.264 434.528 17.714 435.496 16.416V18H437.432V1.368H435.496V7.682C434.462 6.428 433.208 5.9 431.91 5.9C428.984 5.9 426.85 8.606 426.85 12.082C426.85 15.536 428.852 18.264 431.91 18.264ZM451.071 18.22C451.555 18.22 452.105 18.176 452.545 18.132V16.328H451.159C450.521 16.328 450.081 16.13 450.081 15.184V7.946H452.435V6.12H450.081V2.798H448.189V6.12H446.253V7.946H448.189V15.426C448.189 17.428 449.025 18.22 451.071 18.22ZM454.728 17.978H456.642V10.52C457.082 8.958 458.512 7.748 460.382 7.748C461.812 7.748 462.802 8.452 462.802 10.41V17.978H464.694V10.3C464.694 7.396 463.176 5.9 460.69 5.9C459.348 5.9 457.896 6.34 456.642 7.616V1.368H454.728V17.978ZM468.725 3.942C469.473 3.942 470.067 3.348 470.067 2.6C470.067 1.852 469.473 1.258 468.725 1.258C467.977 1.258 467.383 1.852 467.383 2.6C467.383 3.348 467.977 3.942 468.725 3.942ZM467.779 18H469.671V6.34H467.779V18ZM477.133 18.264C479.729 18.264 481.797 16.856 481.797 14.722C481.797 12.83 480.169 11.774 477.419 11.07C475.659 10.564 474.427 10.08 474.427 9.134C474.427 8.386 475.219 7.836 476.737 7.836C478.079 7.836 479.135 8.276 479.619 9.464L481.467 8.98C480.807 6.846 479.047 5.9 476.825 5.9C474.229 5.9 472.513 7.198 472.513 9.2C472.513 11.246 474.339 12.104 476.737 12.83C478.563 13.336 479.839 13.908 479.839 14.876C479.839 15.888 478.475 16.416 477.111 16.416C475.615 16.416 474.493 15.8 474.075 14.304L472.161 14.744C472.865 17.12 474.779 18.264 477.133 18.264ZM491.842 3.942C492.59 3.942 493.184 3.348 493.184 2.6C493.184 1.852 492.59 1.258 491.842 1.258C491.094 1.258 490.5 1.852 490.5 2.6C490.5 3.348 491.094 3.942 491.842 3.942ZM490.896 18H492.788V6.34H490.896V18ZM500.25 18.264C502.846 18.264 504.914 16.856 504.914 14.722C504.914 12.83 503.286 11.774 500.536 11.07C498.776 10.564 497.544 10.08 497.544 9.134C497.544 8.386 498.336 7.836 499.854 7.836C501.196 7.836 502.252 8.276 502.736 9.464L504.584 8.98C503.924 6.846 502.164 5.9 499.942 5.9C497.346 5.9 495.63 7.198 495.63 9.2C495.63 11.246 497.456 12.104 499.854 12.83C501.68 13.336 502.956 13.908 502.956 14.876C502.956 15.888 501.592 16.416 500.228 16.416C498.732 16.416 497.61 15.8 497.192 14.304L495.278 14.744C495.982 17.12 497.896 18.264 500.25 18.264ZM517.995 18.22C518.479 18.22 519.029 18.176 519.469 18.132V16.328H518.083C517.445 16.328 517.005 16.13 517.005 15.184V7.946H519.359V6.12H517.005V2.798H515.113V6.12H513.177V7.946H515.113V15.426C515.113 17.428 515.949 18.22 517.995 18.22ZM521.652 17.978H523.566V10.52C524.006 8.958 525.436 7.748 527.306 7.748C528.736 7.748 529.726 8.452 529.726 10.41V17.978H531.618V10.3C531.618 7.396 530.1 5.9 527.614 5.9C526.272 5.9 524.82 6.34 523.566 7.616V1.368H521.652V17.978ZM539.036 18.264C541.258 18.264 543.106 16.988 544.03 14.612L542.358 14.084C541.654 15.646 540.51 16.416 539.124 16.416C537.078 16.416 535.89 14.744 535.714 12.522H544.14V11.642C544.14 8.298 542.116 5.922 539.058 5.922C535.868 5.922 533.756 8.496 533.756 12.06C533.756 15.514 535.758 18.264 539.036 18.264ZM535.802 10.718C536.088 9.046 537.276 7.748 539.058 7.748C540.774 7.748 541.918 8.958 542.138 10.718H535.802ZM557.467 18.22C559.689 18.22 561.757 16.856 562.417 14.106L560.569 13.666C560.041 15.272 559.007 16.35 557.577 16.35C555.641 16.35 554.233 14.37 554.233 11.994C554.233 9.662 555.575 7.77 557.643 7.77C558.831 7.77 559.953 8.386 560.525 9.904L562.351 9.442C561.603 7.22 559.843 5.9 557.599 5.9C554.475 5.9 552.297 8.474 552.297 11.994C552.297 15.272 554.211 18.22 557.467 18.22ZM567.901 18.264C569.243 18.264 570.629 17.714 571.993 16.196C572.037 17.12 572.785 18.264 574.017 18.264C574.325 18.264 574.633 18.198 575.029 18.066V16.46C574.325 16.702 573.863 16.284 573.863 15.734V10.212C573.863 7.308 571.971 5.9 569.287 5.9C567.109 5.9 565.173 6.846 564.601 8.98L566.471 9.486C566.889 8.298 567.967 7.748 569.353 7.748C570.871 7.748 571.795 8.408 571.795 9.266C571.795 10.542 569.749 10.806 567.461 11.466C565.547 12.06 564.139 13.204 564.139 14.964C564.139 16.856 565.767 18.264 567.901 18.264ZM568.055 16.416C566.977 16.416 566.075 15.844 566.075 14.832C566.075 12.61 570.431 13.138 571.993 11.642V13.776C571.135 15.448 569.463 16.416 568.055 16.416ZM582.15 16.306C580.082 16.306 578.696 14.128 578.696 11.884C578.696 9.662 580.06 7.77 582.106 7.77C584.174 7.77 585.56 9.684 585.56 12.038C585.56 14.458 584.064 16.306 582.15 16.306ZM576.76 22.928H578.696V16.482C579.73 17.736 580.984 18.264 582.326 18.264C585.384 18.264 587.518 15.558 587.518 12.082C587.518 8.628 585.472 5.9 582.326 5.9C580.918 5.9 579.664 6.45 578.696 7.748V6.12H576.76V22.928ZM590.949 3.942C591.697 3.942 592.291 3.348 592.291 2.6C592.291 1.852 591.697 1.258 590.949 1.258C590.201 1.258 589.607 1.852 589.607 2.6C589.607 3.348 590.201 3.942 590.949 3.942ZM590.003 18H591.895V6.34H590.003V18ZM599.313 18.22C599.797 18.22 600.347 18.176 600.787 18.132V16.328H599.401C598.763 16.328 598.323 16.13 598.323 15.184V7.946H600.677V6.12H598.323V2.798H596.431V6.12H594.495V7.946H596.431V15.426C596.431 17.428 597.267 18.22 599.313 18.22ZM606.38 18.264C607.722 18.264 609.108 17.714 610.472 16.196C610.516 17.12 611.264 18.264 612.496 18.264C612.804 18.264 613.112 18.198 613.508 18.066V16.46C612.804 16.702 612.342 16.284 612.342 15.734V10.212C612.342 7.308 610.45 5.9 607.766 5.9C605.588 5.9 603.652 6.846 603.08 8.98L604.95 9.486C605.368 8.298 606.446 7.748 607.832 7.748C609.35 7.748 610.274 8.408 610.274 9.266C610.274 10.542 608.228 10.806 605.94 11.466C604.026 12.06 602.618 13.204 602.618 14.964C602.618 16.856 604.246 18.264 606.38 18.264ZM606.534 16.416C605.456 16.416 604.554 15.844 604.554 14.832C604.554 12.61 608.91 13.138 610.472 11.642V13.776C609.614 15.448 607.942 16.416 606.534 16.416ZM615.348 18H617.24V1.368H615.348V18ZM404.688 42.264C408.12 42.264 410.76 39.646 410.76 36.104C410.76 32.562 408.12 29.922 404.688 29.922C401.256 29.922 398.616 32.562 398.616 36.104C398.616 39.646 401.256 42.264 404.688 42.264ZM404.688 40.438C402.422 40.438 400.596 38.546 400.596 36.104C400.596 33.662 402.422 31.792 404.688 31.792C406.954 31.792 408.78 33.662 408.78 36.104C408.78 38.546 406.954 40.438 404.688 40.438ZM414.31 42H416.18V32.144H418.776V30.34H416.18V28.184C416.18 27.304 416.466 26.93 417.72 26.93C418.028 26.93 418.446 26.952 418.886 27.018V25.324C418.314 25.192 417.676 25.126 417.17 25.126C415.19 25.126 414.31 26.138 414.31 27.942V30.34H412.088V32.144H414.31V42ZM436.614 40.137H431.876L429.07 38.964L435.694 29.35L434.866 27.349L431.232 25.854L427.598 27.349L426.379 30.27L428.127 30.983L429.024 28.775L431.232 27.878L433.44 28.775L433.578 29.12L426.218 39.838L431.416 42H436.614V40.137ZM446.737 32.57L443.931 25.854H440.274L437.468 32.57V35.376L440.205 42H444L446.737 35.376V32.57ZM444.874 34.962L442.712 40.16H441.493L439.331 34.962V32.984L441.516 27.717H442.689L444.874 32.984V34.962ZM457.641 27.349L454.007 25.854L450.373 27.349L448.855 31.006L450.35 34.64L454.007 36.158L455.18 35.652L452.857 41.264L454.628 42L459.159 31.006L457.641 27.349ZM456.215 33.191L454.007 34.088L451.799 33.191L450.902 30.983L451.799 28.775L454.007 27.878L456.215 28.775L457.112 30.983L456.215 33.191ZM469.65 36.848L468.132 33.191L462.221 30.753V27.717H469.236V25.854H460.358V31.995L466.706 34.617L467.626 36.825L466.706 39.033L464.498 39.93L460.841 38.412L460.059 40.137L464.475 41.977H464.521L468.155 40.482L469.65 36.848ZM485.069 42.264C488.171 42.264 490.151 39.536 490.151 36.082C490.151 32.606 488.105 29.9 485.091 29.9C483.793 29.9 482.539 30.406 481.505 31.682V25.368H479.569V42H481.505V40.416C482.473 41.736 483.727 42.264 485.069 42.264ZM484.871 40.394C482.913 40.394 481.505 38.59 481.505 36.236C481.505 33.882 482.891 31.858 484.915 31.858C486.873 31.858 488.215 33.75 488.215 36.126C488.215 38.48 486.895 40.394 484.871 40.394ZM493.586 27.942C494.334 27.942 494.928 27.348 494.928 26.6C494.928 25.852 494.334 25.258 493.586 25.258C492.838 25.258 492.244 25.852 492.244 26.6C492.244 27.348 492.838 27.942 493.586 27.942ZM492.64 42H494.532V30.34H492.64V42ZM497.704 42H499.596V25.368H497.704V42ZM502.495 42H504.387V25.368H502.495V42ZM508.496 27.942C509.244 27.942 509.838 27.348 509.838 26.6C509.838 25.852 509.244 25.258 508.496 25.258C507.748 25.258 507.154 25.852 507.154 26.6C507.154 27.348 507.748 27.942 508.496 27.942ZM507.55 42H509.442V30.34H507.55V42ZM517.85 42.264C521.282 42.264 523.922 39.646 523.922 36.104C523.922 32.562 521.282 29.922 517.85 29.922C514.418 29.922 511.778 32.562 511.778 36.104C511.778 39.646 514.418 42.264 517.85 42.264ZM517.85 40.438C515.584 40.438 513.758 38.546 513.758 36.104C513.758 33.662 515.584 31.792 517.85 31.792C520.116 31.792 521.942 33.662 521.942 36.104C521.942 38.546 520.116 40.438 517.85 40.438ZM525.91 42H527.824V34.52C528.264 32.958 529.694 31.748 531.564 31.748C532.994 31.748 533.984 32.452 533.984 34.41V42H535.876V34.3C535.876 31.396 534.358 29.9 531.872 29.9C530.53 29.9 529.078 30.34 527.824 31.616V30.12H525.91V42ZM541.909 42.264C543.251 42.264 544.637 41.714 546.001 40.196C546.045 41.12 546.793 42.264 548.025 42.264C548.333 42.264 548.641 42.198 549.037 42.066V40.46C548.333 40.702 547.871 40.284 547.871 39.734V34.212C547.871 31.308 545.979 29.9 543.295 29.9C541.117 29.9 539.181 30.846 538.609 32.98L540.479 33.486C540.897 32.298 541.975 31.748 543.361 31.748C544.879 31.748 545.803 32.408 545.803 33.266C545.803 34.542 543.757 34.806 541.469 35.466C539.555 36.06 538.147 37.204 538.147 38.964C538.147 40.856 539.775 42.264 541.909 42.264ZM542.063 40.416C540.985 40.416 540.083 39.844 540.083 38.832C540.083 36.61 544.439 37.138 546.001 35.642V37.776C545.143 39.448 543.471 40.416 542.063 40.416ZM552.088 27.942C552.836 27.942 553.43 27.348 553.43 26.6C553.43 25.852 552.836 25.258 552.088 25.258C551.34 25.258 550.746 25.852 550.746 26.6C550.746 27.348 551.34 27.942 552.088 27.942ZM551.142 42H553.034V30.34H551.142V42ZM556.096 42H557.988V35.356C557.988 33.376 559.198 32.034 561.948 32.034V30.032C560.078 29.878 559.066 30.406 557.988 31.77V30.12H556.096V42ZM568.323 42.264C570.545 42.264 572.393 40.988 573.317 38.612L571.645 38.084C570.941 39.646 569.797 40.416 568.411 40.416C566.365 40.416 565.177 38.744 565.001 36.522H573.427V35.642C573.427 32.298 571.403 29.922 568.345 29.922C565.155 29.922 563.043 32.496 563.043 36.06C563.043 39.514 565.045 42.264 568.323 42.264ZM565.089 34.718C565.375 33.046 566.563 31.748 568.345 31.748C570.061 31.748 571.205 32.958 571.425 34.718H565.089ZM579.961 42.264C582.557 42.264 584.625 40.856 584.625 38.722C584.625 36.83 582.997 35.774 580.247 35.07C578.487 34.564 577.255 34.08 577.255 33.134C577.255 32.386 578.047 31.836 579.565 31.836C580.907 31.836 581.963 32.276 582.447 33.464L584.295 32.98C583.635 30.846 581.875 29.9 579.653 29.9C577.057 29.9 575.341 31.198 575.341 33.2C575.341 35.246 577.167 36.104 579.565 36.83C581.391 37.336 582.667 37.908 582.667 38.876C582.667 39.888 581.303 40.416 579.939 40.416C578.443 40.416 577.321 39.8 576.903 38.304L574.989 38.744C575.693 41.12 577.607 42.264 579.961 42.264ZM588.998 33.97C589.79 33.97 590.45 33.31 590.45 32.518C590.45 31.726 589.79 31.066 588.998 31.066C588.206 31.066 587.546 31.726 587.546 32.518C587.546 33.31 588.206 33.97 588.998 33.97ZM588.998 42.264C589.79 42.264 590.45 41.604 590.45 40.812C590.45 40.02 589.79 39.36 588.998 39.36C588.206 39.36 587.546 40.02 587.546 40.812C587.546 41.604 588.206 42.264 588.998 42.264Z" fill="#01ACB7"/>
<path d="M696.94 18H698.832V3.326H704.552V1.456H691.22V3.326H696.94V18ZM706.069 17.978H707.983V10.52C708.423 8.958 709.853 7.748 711.723 7.748C713.153 7.748 714.143 8.452 714.143 10.41V17.978H716.035V10.3C716.035 7.396 714.517 5.9 712.031 5.9C710.689 5.9 709.237 6.34 707.983 7.616V1.368H706.069V17.978ZM723.454 18.264C725.676 18.264 727.524 16.988 728.448 14.612L726.776 14.084C726.072 15.646 724.928 16.416 723.542 16.416C721.496 16.416 720.308 14.744 720.132 12.522H728.558V11.642C728.558 8.298 726.534 5.922 723.476 5.922C720.286 5.922 718.174 8.496 718.174 12.06C718.174 15.514 720.176 18.264 723.454 18.264ZM720.22 10.718C720.506 9.046 721.694 7.748 723.476 7.748C725.192 7.748 726.336 8.958 726.556 10.718H720.22ZM735.092 18.264C737.688 18.264 739.756 16.856 739.756 14.722C739.756 12.83 738.128 11.774 735.378 11.07C733.618 10.564 732.386 10.08 732.386 9.134C732.386 8.386 733.178 7.836 734.696 7.836C736.038 7.836 737.094 8.276 737.578 9.464L739.426 8.98C738.766 6.846 737.006 5.9 734.784 5.9C732.188 5.9 730.472 7.198 730.472 9.2C730.472 11.246 732.298 12.104 734.696 12.83C736.522 13.336 737.798 13.908 737.798 14.876C737.798 15.888 736.434 16.416 735.07 16.416C733.574 16.416 732.452 15.8 732.034 14.304L730.12 14.744C730.824 17.12 732.738 18.264 735.092 18.264ZM746.593 18.264C748.815 18.264 750.663 16.988 751.587 14.612L749.915 14.084C749.211 15.646 748.067 16.416 746.681 16.416C744.635 16.416 743.447 14.744 743.271 12.522H751.697V11.642C751.697 8.298 749.673 5.922 746.615 5.922C743.425 5.922 741.313 8.496 741.313 12.06C741.313 15.514 743.315 18.264 746.593 18.264ZM743.359 10.718C743.645 9.046 744.833 7.748 746.615 7.748C748.331 7.748 749.475 8.958 749.695 10.718H743.359ZM765.926 18.264C769.028 18.264 771.008 15.536 771.008 12.082C771.008 8.606 768.962 5.9 765.948 5.9C764.65 5.9 763.396 6.406 762.362 7.682V1.368H760.426V18H762.362V16.416C763.33 17.736 764.584 18.264 765.926 18.264ZM765.728 16.394C763.77 16.394 762.362 14.59 762.362 12.236C762.362 9.882 763.748 7.858 765.772 7.858C767.73 7.858 769.072 9.75 769.072 12.126C769.072 14.48 767.752 16.394 765.728 16.394ZM774.443 3.942C775.191 3.942 775.785 3.348 775.785 2.6C775.785 1.852 775.191 1.258 774.443 1.258C773.695 1.258 773.101 1.852 773.101 2.6C773.101 3.348 773.695 3.942 774.443 3.942ZM773.497 18H775.389V6.34H773.497V18ZM778.561 18H780.453V1.368H778.561V18ZM783.352 18H785.244V1.368H783.352V18ZM789.353 3.942C790.101 3.942 790.695 3.348 790.695 2.6C790.695 1.852 790.101 1.258 789.353 1.258C788.605 1.258 788.011 1.852 788.011 2.6C788.011 3.348 788.605 3.942 789.353 3.942ZM788.407 18H790.299V6.34H788.407V18ZM798.708 18.264C802.14 18.264 804.78 15.646 804.78 12.104C804.78 8.562 802.14 5.922 798.708 5.922C795.276 5.922 792.636 8.562 792.636 12.104C792.636 15.646 795.276 18.264 798.708 18.264ZM798.708 16.438C796.442 16.438 794.616 14.546 794.616 12.104C794.616 9.662 796.442 7.792 798.708 7.792C800.974 7.792 802.8 9.662 802.8 12.104C802.8 14.546 800.974 16.438 798.708 16.438ZM806.768 18H808.682V10.52C809.122 8.958 810.552 7.748 812.422 7.748C813.852 7.748 814.842 8.452 814.842 10.41V18H816.734V10.3C816.734 7.396 815.216 5.9 812.73 5.9C811.388 5.9 809.936 6.34 808.682 7.616V6.12H806.768V18ZM822.767 18.264C824.109 18.264 825.495 17.714 826.859 16.196C826.903 17.12 827.651 18.264 828.883 18.264C829.191 18.264 829.499 18.198 829.895 18.066V16.46C829.191 16.702 828.729 16.284 828.729 15.734V10.212C828.729 7.308 826.837 5.9 824.153 5.9C821.975 5.9 820.039 6.846 819.467 8.98L821.337 9.486C821.755 8.298 822.833 7.748 824.219 7.748C825.737 7.748 826.661 8.408 826.661 9.266C826.661 10.542 824.615 10.806 822.327 11.466C820.413 12.06 819.005 13.204 819.005 14.964C819.005 16.856 820.633 18.264 822.767 18.264ZM822.921 16.416C821.843 16.416 820.941 15.844 820.941 14.832C820.941 12.61 825.297 13.138 826.859 11.642V13.776C826.001 15.448 824.329 16.416 822.921 16.416ZM832.945 3.942C833.693 3.942 834.287 3.348 834.287 2.6C834.287 1.852 833.693 1.258 832.945 1.258C832.197 1.258 831.603 1.852 831.603 2.6C831.603 3.348 832.197 3.942 832.945 3.942ZM831.999 18H833.891V6.34H831.999V18ZM836.953 18H838.845V11.356C838.845 9.376 840.055 8.034 842.805 8.034V6.032C840.935 5.878 839.923 6.406 838.845 7.77V6.12H836.953V18ZM849.181 18.264C851.403 18.264 853.251 16.988 854.175 14.612L852.503 14.084C851.799 15.646 850.655 16.416 849.269 16.416C847.223 16.416 846.035 14.744 845.859 12.522H854.285V11.642C854.285 8.298 852.261 5.922 849.203 5.922C846.013 5.922 843.901 8.496 843.901 12.06C843.901 15.514 845.903 18.264 849.181 18.264ZM845.947 10.718C846.233 9.046 847.421 7.748 849.203 7.748C850.919 7.748 852.063 8.958 852.283 10.718H845.947ZM860.818 18.264C863.414 18.264 865.482 16.856 865.482 14.722C865.482 12.83 863.854 11.774 861.104 11.07C859.344 10.564 858.112 10.08 858.112 9.134C858.112 8.386 858.904 7.836 860.422 7.836C861.764 7.836 862.82 8.276 863.304 9.464L865.152 8.98C864.492 6.846 862.732 5.9 860.51 5.9C857.914 5.9 856.198 7.198 856.198 9.2C856.198 11.246 858.024 12.104 860.422 12.83C862.248 13.336 863.524 13.908 863.524 14.876C863.524 15.888 862.16 16.416 860.796 16.416C859.3 16.416 858.178 15.8 857.76 14.304L855.846 14.744C856.55 17.12 858.464 18.264 860.818 18.264ZM878.893 16.02C877.023 16.02 875.571 14.172 875.571 11.862C875.571 9.574 877.001 7.748 878.893 7.748C880.763 7.748 882.127 9.508 882.127 11.884C882.127 14.282 880.697 16.02 878.893 16.02ZM878.915 23.192C881.775 23.192 884.041 21.256 884.041 17.912V6.12H882.127V7.484C880.983 6.142 879.707 5.9 878.761 5.9C875.681 5.9 873.635 8.54 873.635 11.906C873.635 15.272 875.725 17.912 878.717 17.912C879.927 17.912 881.093 17.472 882.127 16.196V17.956C882.127 20.024 880.763 21.344 878.915 21.344C877.661 21.344 876.561 20.728 875.879 19.43L874.097 19.914C875.065 22.158 876.759 23.192 878.915 23.192ZM890.077 18.264C891.419 18.264 892.805 17.714 894.169 16.196C894.213 17.12 894.961 18.264 896.193 18.264C896.501 18.264 896.809 18.198 897.205 18.066V16.46C896.501 16.702 896.039 16.284 896.039 15.734V10.212C896.039 7.308 894.147 5.9 891.463 5.9C889.285 5.9 887.349 6.846 886.777 8.98L888.647 9.486C889.065 8.298 890.143 7.748 891.529 7.748C893.047 7.748 893.971 8.408 893.971 9.266C893.971 10.542 891.925 10.806 889.637 11.466C887.723 12.06 886.315 13.204 886.315 14.964C886.315 16.856 887.943 18.264 890.077 18.264ZM890.231 16.416C889.153 16.416 888.251 15.844 888.251 14.832C888.251 12.61 892.607 13.138 894.169 11.642V13.776C893.311 15.448 891.639 16.416 890.231 16.416ZM900.256 3.942C901.004 3.942 901.598 3.348 901.598 2.6C901.598 1.852 901.004 1.258 900.256 1.258C899.508 1.258 898.914 1.852 898.914 2.6C898.914 3.348 899.508 3.942 900.256 3.942ZM899.31 18H901.202V6.34H899.31V18ZM904.264 18H906.178V10.52C906.618 8.958 908.048 7.748 909.918 7.748C911.348 7.748 912.338 8.452 912.338 10.41V18H914.23V10.3C914.23 7.396 912.712 5.9 910.226 5.9C908.884 5.9 907.432 6.34 906.178 7.616V6.12H904.264V18ZM921.605 18.264C923.827 18.264 925.675 16.988 926.599 14.612L924.927 14.084C924.223 15.646 923.079 16.416 921.693 16.416C919.647 16.416 918.459 14.744 918.283 12.522H926.709V11.642C926.709 8.298 924.685 5.922 921.627 5.922C918.437 5.922 916.325 8.496 916.325 12.06C916.325 15.514 918.327 18.264 921.605 18.264ZM918.371 10.718C918.657 9.046 919.845 7.748 921.627 7.748C923.343 7.748 924.487 8.958 924.707 10.718H918.371ZM933.528 16.394C931.482 16.394 930.184 14.48 930.184 12.126C930.184 9.75 931.504 7.858 933.462 7.858C935.508 7.858 936.894 9.882 936.894 12.236C936.894 14.59 935.508 16.394 933.528 16.394ZM933.308 18.264C934.672 18.264 935.926 17.714 936.894 16.416V18H938.83V1.368H936.894V7.682C935.86 6.428 934.606 5.9 933.308 5.9C930.382 5.9 928.248 8.606 928.248 12.082C928.248 15.536 930.25 18.264 933.308 18.264ZM697.292 32.166C695.642 31.506 694.74 30.868 694.74 29.79C694.74 28.756 695.576 27.854 697.292 27.568V32.166ZM698.876 40.394V35.026C700.68 35.708 701.978 36.566 701.978 37.82C701.978 39.03 700.746 40.13 698.876 40.394ZM697.292 44.618H698.876V42.286C701.626 42 703.826 40.548 703.826 37.732C703.826 35.158 702.022 33.992 698.876 32.804V27.568C700.416 27.81 701.23 28.514 701.736 30.032L703.474 29.614C702.836 27.084 701.076 25.896 698.876 25.698V23.828H697.292V25.676C694.586 25.962 692.826 27.48 692.826 29.878C692.826 32.122 694.344 33.266 697.292 34.366V40.372C695.598 40.064 694.608 38.854 694.212 37.072L692.452 37.446C693.024 40.218 694.762 41.956 697.292 42.264V44.618ZM711.755 42.308C714.945 42.308 717.277 40.592 717.277 37.6C717.277 35.51 716.155 34.102 714.439 33.42C715.869 32.65 716.595 31.44 716.595 29.856C716.595 27.37 714.791 25.566 711.689 25.566C708.609 25.566 706.959 27.348 706.475 29.9L708.389 30.208C708.631 28.624 709.731 27.37 711.821 27.37C713.603 27.37 714.681 28.294 714.681 29.922C714.681 31.44 713.735 32.672 711.909 32.672H710.215V34.432H711.843C714.087 34.432 715.319 35.796 715.319 37.556C715.319 39.536 713.779 40.57 711.733 40.57C710.039 40.57 708.521 39.866 708.037 37.402L706.079 37.754C706.761 40.746 708.697 42.308 711.755 42.308ZM721.742 42.264C722.534 42.264 723.194 41.604 723.194 40.812C723.194 40.02 722.534 39.36 721.742 39.36C720.95 39.36 720.29 40.02 720.29 40.812C720.29 41.604 720.95 42.264 721.742 42.264ZM732.087 34.608C730.019 34.608 728.743 32.936 728.743 30.934C728.743 28.844 730.151 27.348 732.153 27.348C734.265 27.348 735.717 28.954 735.717 31.66C735.365 33.09 734.045 34.608 732.087 34.608ZM732.087 42.264C735.805 42.264 737.895 39.294 737.895 33.64C737.895 28.14 735.849 25.522 732.329 25.522C728.919 25.522 726.785 27.986 726.785 31.11C726.785 34.19 728.831 36.5 731.977 36.5C733.275 36.5 734.749 36.104 736.047 34.234C735.827 37.556 734.793 40.46 731.999 40.46C730.503 40.46 729.513 39.646 728.963 38.15L727.181 38.546C727.885 40.812 729.447 42.264 732.087 42.264ZM751.655 42.22C752.139 42.22 752.689 42.176 753.129 42.132V40.328H751.743C751.105 40.328 750.665 40.13 750.665 39.184V31.946H753.019V30.12H750.665V26.798H748.773V30.12H746.837V31.946H748.773V39.426C748.773 41.428 749.609 42.22 751.655 42.22ZM755.356 42H757.248V35.356C757.248 33.376 758.458 32.034 761.208 32.034V30.032C759.338 29.878 758.326 30.406 757.248 31.77V30.12H755.356V42ZM764.195 27.942C764.943 27.942 765.537 27.348 765.537 26.6C765.537 25.852 764.943 25.258 764.195 25.258C763.447 25.258 762.853 25.852 762.853 26.6C762.853 27.348 763.447 27.942 764.195 27.942ZM763.249 42H765.141V30.34H763.249V42ZM768.313 42H770.205V25.368H768.313V42ZM773.104 42H774.996V25.368H773.104V42ZM779.105 27.942C779.853 27.942 780.447 27.348 780.447 26.6C780.447 25.852 779.853 25.258 779.105 25.258C778.357 25.258 777.763 25.852 777.763 26.6C777.763 27.348 778.357 27.942 779.105 27.942ZM778.159 42H780.051V30.34H778.159V42ZM788.459 42.264C791.891 42.264 794.531 39.646 794.531 36.104C794.531 32.562 791.891 29.922 788.459 29.922C785.027 29.922 782.387 32.562 782.387 36.104C782.387 39.646 785.027 42.264 788.459 42.264ZM788.459 40.438C786.193 40.438 784.367 38.546 784.367 36.104C784.367 33.662 786.193 31.792 788.459 31.792C790.725 31.792 792.551 33.662 792.551 36.104C792.551 38.546 790.725 40.438 788.459 40.438ZM796.52 42H798.434V34.52C798.874 32.958 800.304 31.748 802.174 31.748C803.604 31.748 804.594 32.452 804.594 34.41V42H806.486V34.3C806.486 31.396 804.968 29.9 802.482 29.9C801.14 29.9 799.688 30.34 798.434 31.616V30.12H796.52V42ZM821.248 42.264C824.35 42.264 826.33 39.536 826.33 36.082C826.33 32.606 824.284 29.9 821.27 29.9C819.972 29.9 818.718 30.406 817.684 31.682V25.368H815.748V42H817.684V40.416C818.652 41.736 819.906 42.264 821.248 42.264ZM821.05 40.394C819.092 40.394 817.684 38.59 817.684 36.236C817.684 33.882 819.07 31.858 821.094 31.858C823.052 31.858 824.394 33.75 824.394 36.126C824.394 38.48 823.074 40.394 821.05 40.394ZM833.154 42.264C835.376 42.264 837.224 40.988 838.148 38.612L836.476 38.084C835.772 39.646 834.628 40.416 833.242 40.416C831.196 40.416 830.008 38.744 829.832 36.522H838.258V35.642C838.258 32.298 836.234 29.922 833.176 29.922C829.986 29.922 827.874 32.496 827.874 36.06C827.874 39.514 829.876 42.264 833.154 42.264ZM829.92 34.718C830.206 33.046 831.394 31.748 833.176 31.748C834.892 31.748 836.036 32.958 836.256 34.718H829.92ZM844.747 42.22C845.231 42.22 845.781 42.176 846.221 42.132V40.328H844.835C844.197 40.328 843.757 40.13 843.757 39.184V31.946H846.111V30.12H843.757V26.798H841.865V30.12H839.929V31.946H841.865V39.426C841.865 41.428 842.701 42.22 844.747 42.22ZM851.351 42H853.265L856.191 32.672L859.051 42H860.965L864.771 30.12H862.769L859.997 39.646L857.137 30.12H855.157L852.297 39.646L849.525 30.12H847.545L851.351 42ZM871.267 42.264C873.489 42.264 875.337 40.988 876.261 38.612L874.589 38.084C873.885 39.646 872.741 40.416 871.355 40.416C869.309 40.416 868.121 38.744 867.945 36.522H876.371V35.642C876.371 32.298 874.347 29.922 871.289 29.922C868.099 29.922 865.987 32.496 865.987 36.06C865.987 39.514 867.989 42.264 871.267 42.264ZM868.033 34.718C868.319 33.046 869.507 31.748 871.289 31.748C873.005 31.748 874.149 32.958 874.369 34.718H868.033ZM883.212 42.264C885.434 42.264 887.282 40.988 888.206 38.612L886.534 38.084C885.83 39.646 884.686 40.416 883.3 40.416C881.254 40.416 880.066 38.744 879.89 36.522H888.316V35.642C888.316 32.298 886.292 29.922 883.234 29.922C880.044 29.922 877.932 32.496 877.932 36.06C877.932 39.514 879.934 42.264 883.212 42.264ZM879.978 34.718C880.264 33.046 881.452 31.748 883.234 31.748C884.95 31.748 886.094 32.958 886.314 34.718H879.978ZM890.449 42H892.363V34.52C892.803 32.958 894.233 31.748 896.103 31.748C897.533 31.748 898.523 32.452 898.523 34.41V42H900.415V34.3C900.415 31.396 898.897 29.9 896.411 29.9C895.069 29.9 893.617 30.34 892.363 31.616V30.12H890.449V42ZM909.722 42H911.614V28.954L916.806 42H918.566L923.67 28.954V42H925.562V25.456H923.098L917.686 39.294L912.186 25.456H909.722V42ZM931.649 42.264C932.991 42.264 934.377 41.714 935.741 40.196C935.785 41.12 936.533 42.264 937.765 42.264C938.073 42.264 938.381 42.198 938.777 42.066V40.46C938.073 40.702 937.611 40.284 937.611 39.734V34.212C937.611 31.308 935.719 29.9 933.035 29.9C930.857 29.9 928.921 30.846 928.349 32.98L930.219 33.486C930.637 32.298 931.715 31.748 933.101 31.748C934.619 31.748 935.543 32.408 935.543 33.266C935.543 34.542 933.497 34.806 931.209 35.466C929.295 36.06 927.887 37.204 927.887 38.964C927.887 40.856 929.515 42.264 931.649 42.264ZM931.803 40.416C930.725 40.416 929.823 39.844 929.823 38.832C929.823 36.61 934.179 37.138 935.741 35.642V37.776C934.883 39.448 933.211 40.416 931.803 40.416ZM940.508 42H942.4V35.356C942.4 33.376 943.61 32.034 946.36 32.034V30.032C944.49 29.878 943.478 30.406 942.4 31.77V30.12H940.508V42ZM952.626 42.22C954.848 42.22 956.916 40.856 957.576 38.106L955.728 37.666C955.2 39.272 954.166 40.35 952.736 40.35C950.8 40.35 949.392 38.37 949.392 35.994C949.392 33.662 950.734 31.77 952.802 31.77C953.99 31.77 955.112 32.386 955.684 33.904L957.51 33.442C956.762 31.22 955.002 29.9 952.758 29.9C949.634 29.9 947.456 32.474 947.456 35.994C947.456 39.272 949.37 42.22 952.626 42.22ZM959.65 41.978H961.564V34.52C962.004 32.958 963.434 31.748 965.304 31.748C966.734 31.748 967.724 32.452 967.724 34.41V41.978H969.616V34.3C969.616 31.396 968.098 29.9 965.612 29.9C964.27 29.9 962.818 30.34 961.564 31.616V25.368H959.65V41.978ZM696.148 66H697.996V49.61H696.412C696.148 51.172 694.498 53.042 691.44 53.042V54.67C692.716 54.67 695.202 54.186 696.148 53.064V66ZM707.558 66.264C710.836 66.264 713.124 64.306 713.124 61.446C713.124 59.774 712.332 58.366 710.44 57.222C711.782 56.408 712.64 55.264 712.64 53.724C712.64 51.326 710.572 49.588 707.558 49.588C704.544 49.588 702.476 51.326 702.476 53.724C702.476 55.264 703.334 56.408 704.676 57.222C702.784 58.366 701.992 59.774 701.992 61.446C701.992 64.306 704.28 66.264 707.558 66.264ZM707.558 56.386C705.798 56.386 704.412 55.242 704.412 53.79C704.412 52.404 705.666 51.392 707.558 51.392C709.45 51.392 710.704 52.404 710.704 53.79C710.704 55.242 709.318 56.386 707.558 56.386ZM707.558 64.438C705.336 64.438 703.906 63.294 703.906 61.446C703.906 59.532 705.446 58.146 707.558 58.146C709.67 58.146 711.21 59.532 711.21 61.446C711.21 63.294 709.78 64.438 707.558 64.438ZM720.266 66.22C720.75 66.22 721.3 66.176 721.74 66.132V64.328H720.354C719.716 64.328 719.276 64.13 719.276 63.184V55.946H721.63V54.12H719.276V50.798H717.384V54.12H715.448V55.946H717.384V63.426C717.384 65.428 718.22 66.22 720.266 66.22ZM723.923 65.978H725.837V58.52C726.277 56.958 727.707 55.748 729.577 55.748C731.007 55.748 731.997 56.452 731.997 58.41V65.978H733.889V58.3C733.889 55.396 732.371 53.9 729.885 53.9C728.543 53.9 727.091 54.34 725.837 55.616V49.368H723.923V65.978ZM746.562 66.264C747.904 66.264 749.29 65.714 750.654 64.196C750.698 65.12 751.446 66.264 752.678 66.264C752.986 66.264 753.294 66.198 753.69 66.066V64.46C752.986 64.702 752.524 64.284 752.524 63.734V58.212C752.524 55.308 750.632 53.9 747.948 53.9C745.77 53.9 743.834 54.846 743.262 56.98L745.132 57.486C745.55 56.298 746.628 55.748 748.014 55.748C749.532 55.748 750.456 56.408 750.456 57.266C750.456 58.542 748.41 58.806 746.122 59.466C744.208 60.06 742.8 61.204 742.8 62.964C742.8 64.856 744.428 66.264 746.562 66.264ZM746.716 64.416C745.638 64.416 744.736 63.844 744.736 62.832C744.736 60.61 749.092 61.138 750.654 59.642V61.776C749.796 63.448 748.124 64.416 746.716 64.416ZM755.42 66H757.334V58.52C757.774 56.958 759.204 55.748 761.074 55.748C762.504 55.748 763.494 56.452 763.494 58.41V66H765.386V58.3C765.386 55.396 763.868 53.9 761.382 53.9C760.04 53.9 758.588 54.34 757.334 55.616V54.12H755.42V66ZM772.739 64.394C770.693 64.394 769.395 62.48 769.395 60.126C769.395 57.75 770.715 55.858 772.673 55.858C774.719 55.858 776.105 57.882 776.105 60.236C776.105 62.59 774.719 64.394 772.739 64.394ZM772.519 66.264C773.883 66.264 775.137 65.714 776.105 64.416V66H778.041V49.368H776.105V55.682C775.071 54.428 773.817 53.9 772.519 53.9C769.593 53.9 767.459 56.606 767.459 60.082C767.459 63.536 769.461 66.264 772.519 66.264ZM787.368 66H793.198C798.324 66 801.052 62.568 801.052 57.64C801.052 52.624 798.324 49.456 793.198 49.456H787.368V66ZM789.26 64.13V51.326H792.824C796.85 51.326 799.116 53.284 799.116 57.64C799.116 61.93 796.85 64.13 792.824 64.13H789.26ZM808.038 66.264C810.26 66.264 812.108 64.988 813.032 62.612L811.36 62.084C810.656 63.646 809.512 64.416 808.126 64.416C806.08 64.416 804.892 62.744 804.716 60.522H813.142V59.642C813.142 56.298 811.118 53.922 808.06 53.922C804.87 53.922 802.758 56.496 802.758 60.06C802.758 63.514 804.76 66.264 808.038 66.264ZM804.804 58.718C805.09 57.046 806.278 55.748 808.06 55.748C809.776 55.748 810.92 56.958 811.14 58.718H804.804ZM819.874 66.22C822.096 66.22 824.164 64.856 824.824 62.106L822.976 61.666C822.448 63.272 821.414 64.35 819.984 64.35C818.048 64.35 816.64 62.37 816.64 59.994C816.64 57.662 817.982 55.77 820.05 55.77C821.238 55.77 822.36 56.386 822.932 57.904L824.758 57.442C824.01 55.22 822.25 53.9 820.006 53.9C816.882 53.9 814.704 56.474 814.704 59.994C814.704 63.272 816.618 66.22 819.874 66.22ZM831.65 66.264C833.872 66.264 835.72 64.988 836.644 62.612L834.972 62.084C834.268 63.646 833.124 64.416 831.738 64.416C829.692 64.416 828.504 62.744 828.328 60.522H836.754V59.642C836.754 56.298 834.73 53.922 831.672 53.922C828.482 53.922 826.37 56.496 826.37 60.06C826.37 63.514 828.372 66.264 831.65 66.264ZM828.416 58.718C828.702 57.046 829.89 55.748 831.672 55.748C833.388 55.748 834.532 56.958 834.752 58.718H828.416ZM838.887 66H840.801V58.344C841.109 57.112 842.495 55.726 844.035 55.726C845.157 55.726 846.147 56.452 846.147 58.344V66H848.039V58.278C848.391 56.848 849.931 55.726 851.383 55.726C852.505 55.726 853.429 56.386 853.429 58.3V66H855.321V58.08C855.321 55.506 853.803 53.878 851.493 53.878C850.151 53.878 848.765 54.428 847.533 55.946C846.697 54.538 845.597 53.9 844.255 53.9C843.199 53.9 841.945 54.296 840.801 55.594V54.12H838.887V66ZM863.508 66.264C866.61 66.264 868.59 63.536 868.59 60.082C868.59 56.606 866.544 53.9 863.53 53.9C862.232 53.9 860.978 54.406 859.944 55.682V49.368H858.008V66H859.944V64.416C860.912 65.736 862.166 66.264 863.508 66.264ZM863.31 64.394C861.352 64.394 859.944 62.59 859.944 60.236C859.944 57.882 861.33 55.858 863.354 55.858C865.312 55.858 866.654 57.75 866.654 60.126C866.654 62.48 865.334 64.394 863.31 64.394ZM875.413 66.264C877.635 66.264 879.483 64.988 880.407 62.612L878.735 62.084C878.031 63.646 876.887 64.416 875.501 64.416C873.455 64.416 872.267 62.744 872.091 60.522H880.517V59.642C880.517 56.298 878.493 53.922 875.435 53.922C872.245 53.922 870.133 56.496 870.133 60.06C870.133 63.514 872.135 66.264 875.413 66.264ZM872.179 58.718C872.465 57.046 873.653 55.748 875.435 55.748C877.151 55.748 878.295 56.958 878.515 58.718H872.179ZM882.651 66H884.543V59.356C884.543 57.376 885.753 56.034 888.503 56.034V54.032C886.633 53.878 885.621 54.406 884.543 55.77V54.12H882.651V66ZM901.87 66.308C905.06 66.308 907.392 64.592 907.392 61.6C907.392 59.51 906.27 58.102 904.554 57.42C905.984 56.65 906.71 55.44 906.71 53.856C906.71 51.37 904.906 49.566 901.804 49.566C898.724 49.566 897.074 51.348 896.59 53.9L898.504 54.208C898.746 52.624 899.846 51.37 901.936 51.37C903.718 51.37 904.796 52.294 904.796 53.922C904.796 55.44 903.85 56.672 902.024 56.672H900.33V58.432H901.958C904.202 58.432 905.434 59.796 905.434 61.556C905.434 63.536 903.894 64.57 901.848 64.57C900.154 64.57 898.636 63.866 898.152 61.402L896.194 61.754C896.876 64.746 898.812 66.308 901.87 66.308ZM913.419 66H915.267V49.61H913.683C913.419 51.172 911.769 53.042 908.711 53.042V54.67C909.987 54.67 912.473 54.186 913.419 53.064V66ZM923.531 66.264C926.127 66.264 928.195 64.856 928.195 62.722C928.195 60.83 926.567 59.774 923.817 59.07C922.057 58.564 920.825 58.08 920.825 57.134C920.825 56.386 921.617 55.836 923.135 55.836C924.477 55.836 925.533 56.276 926.017 57.464L927.865 56.98C927.205 54.846 925.445 53.9 923.223 53.9C920.627 53.9 918.911 55.198 918.911 57.2C918.911 59.246 920.737 60.104 923.135 60.83C924.961 61.336 926.237 61.908 926.237 62.876C926.237 63.888 924.873 64.416 923.509 64.416C922.013 64.416 920.891 63.8 920.473 62.304L918.559 62.744C919.263 65.12 921.177 66.264 923.531 66.264ZM934.68 66.22C935.164 66.22 935.714 66.176 936.154 66.132V64.328H934.768C934.13 64.328 933.69 64.13 933.69 63.184V55.946H936.044V54.12H933.69V50.798H931.798V54.12H929.862V55.946H931.798V63.426C931.798 65.428 932.634 66.22 934.68 66.22ZM691.682 90H702.484V88.064H694.058C694.586 86.854 695.422 85.798 698.238 83.664C701.626 81.068 702.374 79.594 702.374 77.988C702.374 75.524 700.614 73.456 697.292 73.456C694.08 73.456 692.012 75.392 691.66 78.472L693.552 78.824C693.684 76.514 694.982 75.282 697.204 75.282C699.14 75.282 700.416 76.206 700.416 77.944C700.416 79.308 699.624 80.408 697.006 82.41C693.398 85.16 691.902 87.25 691.682 90ZM710.683 90.308C714.423 90.308 716.271 87.338 716.271 82.014C716.271 76.646 714.423 73.676 710.683 73.676C706.943 73.676 705.095 76.646 705.095 82.014C705.095 87.338 706.943 90.308 710.683 90.308ZM710.683 88.504C708.439 88.504 707.009 86.48 707.009 82.014C707.009 77.438 708.417 75.48 710.683 75.48C712.949 75.48 714.357 77.438 714.357 82.014C714.357 86.48 712.927 88.504 710.683 88.504ZM717.957 90H728.759V88.064H720.333C720.861 86.854 721.697 85.798 724.513 83.664C727.901 81.068 728.649 79.594 728.649 77.988C728.649 75.524 726.889 73.456 723.567 73.456C720.355 73.456 718.287 75.392 717.935 78.472L719.827 78.824C719.959 76.514 721.257 75.282 723.479 75.282C725.415 75.282 726.691 76.206 726.691 77.944C726.691 79.308 725.899 80.408 723.281 82.41C719.673 85.16 718.177 87.25 717.957 90ZM736.959 90.308C740.699 90.308 742.547 87.338 742.547 82.014C742.547 76.646 740.699 73.676 736.959 73.676C733.219 73.676 731.371 76.646 731.371 82.014C731.371 87.338 733.219 90.308 736.959 90.308ZM736.959 88.504C734.715 88.504 733.285 86.48 733.285 82.014C733.285 77.438 734.693 75.48 736.959 75.48C739.225 75.48 740.633 77.438 740.633 82.014C740.633 86.48 739.203 88.504 736.959 88.504ZM747.137 90.264C747.929 90.264 748.589 89.604 748.589 88.812C748.589 88.02 747.929 87.36 747.137 87.36C746.345 87.36 745.685 88.02 745.685 88.812C745.685 89.604 746.345 90.264 747.137 90.264Z" fill="#01ACB7"/>
<path d="M1050.62 18H1052.53L1056.36 4.734L1060.1 18H1061.99L1066.39 1.456H1064.41L1061.07 14.898L1057.22 1.456H1055.42L1051.61 14.964L1048.22 1.456H1046.22L1050.62 18ZM1067.9 17.978H1069.82V10.52C1070.26 8.958 1071.69 7.748 1073.56 7.748C1074.99 7.748 1075.98 8.452 1075.98 10.41V17.978H1077.87V10.3C1077.87 7.396 1076.35 5.9 1073.86 5.9C1072.52 5.9 1071.07 6.34 1069.82 7.616V1.368H1067.9V17.978ZM1081.9 3.942C1082.65 3.942 1083.24 3.348 1083.24 2.6C1083.24 1.852 1082.65 1.258 1081.9 1.258C1081.15 1.258 1080.56 1.852 1080.56 2.6C1080.56 3.348 1081.15 3.942 1081.9 3.942ZM1080.95 18H1082.84V6.34H1080.95V18ZM1090.5 18.22C1092.73 18.22 1094.79 16.856 1095.45 14.106L1093.61 13.666C1093.08 15.272 1092.04 16.35 1090.61 16.35C1088.68 16.35 1087.27 14.37 1087.27 11.994C1087.27 9.662 1088.61 7.77 1090.68 7.77C1091.87 7.77 1092.99 8.386 1093.56 9.904L1095.39 9.442C1094.64 7.22 1092.88 5.9 1090.64 5.9C1087.51 5.9 1085.33 8.474 1085.33 11.994C1085.33 15.272 1087.25 18.22 1090.5 18.22ZM1097.53 17.978H1099.44V10.52C1099.88 8.958 1101.31 7.748 1103.18 7.748C1104.61 7.748 1105.6 8.452 1105.6 10.41V17.978H1107.49V10.3C1107.49 7.396 1105.98 5.9 1103.49 5.9C1102.15 5.9 1100.7 6.34 1099.44 7.616V1.368H1097.53V17.978ZM1120.17 18.264C1121.51 18.264 1122.89 17.714 1124.26 16.196C1124.3 17.12 1125.05 18.264 1126.28 18.264C1126.59 18.264 1126.9 18.198 1127.29 18.066V16.46C1126.59 16.702 1126.13 16.284 1126.13 15.734V10.212C1126.13 7.308 1124.24 5.9 1121.55 5.9C1119.37 5.9 1117.44 6.846 1116.87 8.98L1118.74 9.486C1119.15 8.298 1120.23 7.748 1121.62 7.748C1123.14 7.748 1124.06 8.408 1124.06 9.266C1124.06 10.542 1122.01 10.806 1119.73 11.466C1117.81 12.06 1116.4 13.204 1116.4 14.964C1116.4 16.856 1118.03 18.264 1120.17 18.264ZM1120.32 16.416C1119.24 16.416 1118.34 15.844 1118.34 14.832C1118.34 12.61 1122.7 13.138 1124.26 11.642V13.776C1123.4 15.448 1121.73 16.416 1120.32 16.416ZM1129.14 18H1131.03V1.368H1129.14V18ZM1133.82 18H1135.73V10.344C1136.04 9.112 1137.42 7.726 1138.96 7.726C1140.09 7.726 1141.08 8.452 1141.08 10.344V18H1142.97V10.278C1143.32 8.848 1144.86 7.726 1146.31 7.726C1147.43 7.726 1148.36 8.386 1148.36 10.3V18H1150.25V10.08C1150.25 7.506 1148.73 5.878 1146.42 5.878C1145.08 5.878 1143.69 6.428 1142.46 7.946C1141.63 6.538 1140.53 5.9 1139.18 5.9C1138.13 5.9 1136.87 6.296 1135.73 7.594V6.12H1133.82V18ZM1158.28 18.264C1161.72 18.264 1164.36 15.646 1164.36 12.104C1164.36 8.562 1161.72 5.922 1158.28 5.922C1154.85 5.922 1152.21 8.562 1152.21 12.104C1152.21 15.646 1154.85 18.264 1158.28 18.264ZM1158.28 16.438C1156.02 16.438 1154.19 14.546 1154.19 12.104C1154.19 9.662 1156.02 7.792 1158.28 7.792C1160.55 7.792 1162.38 9.662 1162.38 12.104C1162.38 14.546 1160.55 16.438 1158.28 16.438ZM1170.74 18.264C1173.34 18.264 1175.41 16.856 1175.41 14.722C1175.41 12.83 1173.78 11.774 1171.03 11.07C1169.27 10.564 1168.04 10.08 1168.04 9.134C1168.04 8.386 1168.83 7.836 1170.35 7.836C1171.69 7.836 1172.75 8.276 1173.23 9.464L1175.08 8.98C1174.42 6.846 1172.66 5.9 1170.44 5.9C1167.84 5.9 1166.12 7.198 1166.12 9.2C1166.12 11.246 1167.95 12.104 1170.35 12.83C1172.17 13.336 1173.45 13.908 1173.45 14.876C1173.45 15.888 1172.09 16.416 1170.72 16.416C1169.23 16.416 1168.1 15.8 1167.69 14.304L1165.77 14.744C1166.48 17.12 1168.39 18.264 1170.74 18.264ZM1181.89 18.22C1182.38 18.22 1182.93 18.176 1183.37 18.132V16.328H1181.98C1181.34 16.328 1180.9 16.13 1180.9 15.184V7.946H1183.26V6.12H1180.9V2.798H1179.01V6.12H1177.08V7.946H1179.01V15.426C1179.01 17.428 1179.85 18.22 1181.89 18.22ZM1196.9 18.264C1199.12 18.264 1200.97 16.988 1201.89 14.612L1200.22 14.084C1199.52 15.646 1198.37 16.416 1196.99 16.416C1194.94 16.416 1193.75 14.744 1193.58 12.522H1202V11.642C1202 8.298 1199.98 5.922 1196.92 5.922C1193.73 5.922 1191.62 8.496 1191.62 12.06C1191.62 15.514 1193.62 18.264 1196.9 18.264ZM1193.66 10.718C1193.95 9.046 1195.14 7.748 1196.92 7.748C1198.64 7.748 1199.78 8.958 1200 10.718H1193.66ZM1212.43 22.928H1214.34V6.12H1212.43V7.748C1211.44 6.45 1210.18 5.9 1208.78 5.9C1205.63 5.9 1203.56 8.628 1203.56 12.082C1203.56 15.558 1205.7 18.264 1208.78 18.264C1210.14 18.264 1211.37 17.736 1212.43 16.482V22.928ZM1208.91 16.306C1206.93 16.306 1205.52 14.458 1205.52 12.038C1205.52 9.684 1206.91 7.77 1208.97 7.77C1211.04 7.77 1212.43 9.64 1212.43 11.928C1212.43 14.172 1211.04 16.306 1208.91 16.306ZM1220.99 18.22C1222.35 18.22 1223.8 17.802 1225.08 16.328V18H1226.97V6.12H1225.08V13.358C1224.66 15.052 1223.08 16.372 1221.1 16.372C1219.69 16.372 1218.92 15.69 1218.92 13.908V6.12H1217V13.908C1217 16.724 1218.41 18.22 1220.99 18.22ZM1233 18.264C1234.34 18.264 1235.73 17.714 1237.09 16.196C1237.14 17.12 1237.89 18.264 1239.12 18.264C1239.43 18.264 1239.73 18.198 1240.13 18.066V16.46C1239.43 16.702 1238.96 16.284 1238.96 15.734V10.212C1238.96 7.308 1237.07 5.9 1234.39 5.9C1232.21 5.9 1230.27 6.846 1229.7 8.98L1231.57 9.486C1231.99 8.298 1233.07 7.748 1234.45 7.748C1235.97 7.748 1236.9 8.408 1236.9 9.266C1236.9 10.542 1234.85 10.806 1232.56 11.466C1230.65 12.06 1229.24 13.204 1229.24 14.964C1229.24 16.856 1230.87 18.264 1233 18.264ZM1233.16 16.416C1232.08 16.416 1231.18 15.844 1231.18 14.832C1231.18 12.61 1235.53 13.138 1237.09 11.642V13.776C1236.24 15.448 1234.56 16.416 1233.16 16.416ZM1241.97 18H1243.86V1.368H1241.97V18ZM1251.05 18.264C1253.65 18.264 1255.72 16.856 1255.72 14.722C1255.72 12.83 1254.09 11.774 1251.34 11.07C1249.58 10.564 1248.35 10.08 1248.35 9.134C1248.35 8.386 1249.14 7.836 1250.66 7.836C1252 7.836 1253.05 8.276 1253.54 9.464L1255.39 8.98C1254.73 6.846 1252.97 5.9 1250.74 5.9C1248.15 5.9 1246.43 7.198 1246.43 9.2C1246.43 11.246 1248.26 12.104 1250.66 12.83C1252.48 13.336 1253.76 13.908 1253.76 14.876C1253.76 15.888 1252.39 16.416 1251.03 16.416C1249.53 16.416 1248.41 15.8 1247.99 14.304L1246.08 14.744C1246.78 17.12 1248.7 18.264 1251.05 18.264ZM1268.8 18.22C1269.28 18.22 1269.83 18.176 1270.27 18.132V16.328H1268.89C1268.25 16.328 1267.81 16.13 1267.81 15.184V7.946H1270.16V6.12H1267.81V2.798H1265.92V6.12H1263.98V7.946H1265.92V15.426C1265.92 17.428 1266.75 18.22 1268.8 18.22ZM1272.45 17.978H1274.37V10.52C1274.81 8.958 1276.24 7.748 1278.11 7.748C1279.54 7.748 1280.53 8.452 1280.53 10.41V17.978H1282.42V10.3C1282.42 7.396 1280.9 5.9 1278.42 5.9C1277.07 5.9 1275.62 6.34 1274.37 7.616V1.368H1272.45V17.978ZM1289.84 18.264C1292.06 18.264 1293.91 16.988 1294.83 14.612L1293.16 14.084C1292.46 15.646 1291.31 16.416 1289.93 16.416C1287.88 16.416 1286.69 14.744 1286.52 12.522H1294.94V11.642C1294.94 8.298 1292.92 5.922 1289.86 5.922C1286.67 5.922 1284.56 8.496 1284.56 12.06C1284.56 15.514 1286.56 18.264 1289.84 18.264ZM1286.61 10.718C1286.89 9.046 1288.08 7.748 1289.86 7.748C1291.58 7.748 1292.72 8.958 1292.94 10.718H1286.61ZM1050.71 42.264C1052.05 42.264 1053.44 41.714 1054.8 40.196C1054.84 41.12 1055.59 42.264 1056.82 42.264C1057.13 42.264 1057.44 42.198 1057.84 42.066V40.46C1057.13 40.702 1056.67 40.284 1056.67 39.734V34.212C1056.67 31.308 1054.78 29.9 1052.09 29.9C1049.92 29.9 1047.98 30.846 1047.41 32.98L1049.28 33.486C1049.7 32.298 1050.77 31.748 1052.16 31.748C1053.68 31.748 1054.6 32.408 1054.6 33.266C1054.6 34.542 1052.56 34.806 1050.27 35.466C1048.35 36.06 1046.95 37.204 1046.95 38.964C1046.95 40.856 1048.57 42.264 1050.71 42.264ZM1050.86 40.416C1049.78 40.416 1048.88 39.844 1048.88 38.832C1048.88 36.61 1053.24 37.138 1054.8 35.642V37.776C1053.94 39.448 1052.27 40.416 1050.86 40.416ZM1059.57 42H1061.48V34.344C1061.79 33.112 1063.17 31.726 1064.71 31.726C1065.84 31.726 1066.83 32.452 1066.83 34.344V42H1068.72V34.278C1069.07 32.848 1070.61 31.726 1072.06 31.726C1073.18 31.726 1074.11 32.386 1074.11 34.3V42H1076V34.08C1076 31.506 1074.48 29.878 1072.17 29.878C1070.83 29.878 1069.44 30.428 1068.21 31.946C1067.38 30.538 1066.28 29.9 1064.93 29.9C1063.88 29.9 1062.62 30.296 1061.48 31.594V30.12H1059.57V42ZM1084.03 42.264C1087.47 42.264 1090.11 39.646 1090.11 36.104C1090.11 32.562 1087.47 29.922 1084.03 29.922C1080.6 29.922 1077.96 32.562 1077.96 36.104C1077.96 39.646 1080.6 42.264 1084.03 42.264ZM1084.03 40.438C1081.77 40.438 1079.94 38.546 1079.94 36.104C1079.94 33.662 1081.77 31.792 1084.03 31.792C1086.3 31.792 1088.13 33.662 1088.13 36.104C1088.13 38.546 1086.3 40.438 1084.03 40.438ZM1096.08 42.22C1097.44 42.22 1098.89 41.802 1100.17 40.328V42H1102.06V30.12H1100.17V37.358C1099.75 39.052 1098.17 40.372 1096.19 40.372C1094.78 40.372 1094.01 39.69 1094.01 37.908V30.12H1092.09V37.908C1092.09 40.724 1093.5 42.22 1096.08 42.22ZM1104.73 42H1106.64V34.52C1107.08 32.958 1108.51 31.748 1110.38 31.748C1111.81 31.748 1112.8 32.452 1112.8 34.41V42H1114.69V34.3C1114.69 31.396 1113.17 29.9 1110.69 29.9C1109.35 29.9 1107.89 30.34 1106.64 31.616V30.12H1104.73V42ZM1121.72 42.22C1122.2 42.22 1122.75 42.176 1123.19 42.132V40.328H1121.8C1121.17 40.328 1120.73 40.13 1120.73 39.184V31.946H1123.08V30.12H1120.73V26.798H1118.83V30.12H1116.9V31.946H1118.83V39.426C1118.83 41.428 1119.67 42.22 1121.72 42.22ZM1137.36 42.264C1140.79 42.264 1143.43 39.646 1143.43 36.104C1143.43 32.562 1140.79 29.922 1137.36 29.922C1133.93 29.922 1131.29 32.562 1131.29 36.104C1131.29 39.646 1133.93 42.264 1137.36 42.264ZM1137.36 40.438C1135.09 40.438 1133.27 38.546 1133.27 36.104C1133.27 33.662 1135.09 31.792 1137.36 31.792C1139.62 31.792 1141.45 33.662 1141.45 36.104C1141.45 38.546 1139.62 40.438 1137.36 40.438ZM1146.98 42H1148.85V32.144H1151.45V30.34H1148.85V28.184C1148.85 27.304 1149.14 26.93 1150.39 26.93C1150.7 26.93 1151.12 26.952 1151.56 27.018V25.324C1150.98 25.192 1150.35 25.126 1149.84 25.126C1147.86 25.126 1146.98 26.138 1146.98 27.942V30.34H1144.76V32.144H1146.98V42ZM1163 42H1164.91L1167.84 32.672L1170.7 42H1172.61L1176.42 30.12H1174.41L1171.64 39.646L1168.78 30.12H1166.8L1163.94 39.646L1161.17 30.12H1159.19L1163 42ZM1183.55 42.264C1186.98 42.264 1189.62 39.646 1189.62 36.104C1189.62 32.562 1186.98 29.922 1183.55 29.922C1180.12 29.922 1177.48 32.562 1177.48 36.104C1177.48 39.646 1180.12 42.264 1183.55 42.264ZM1183.55 40.438C1181.28 40.438 1179.46 38.546 1179.46 36.104C1179.46 33.662 1181.28 31.792 1183.55 31.792C1185.82 31.792 1187.64 33.662 1187.64 36.104C1187.64 38.546 1185.82 40.438 1183.55 40.438ZM1191.61 42H1193.5V35.356C1193.5 33.376 1194.71 32.034 1197.46 32.034V30.032C1195.59 29.878 1194.58 30.406 1193.5 31.77V30.12H1191.61V42ZM1199.13 42H1201.04V37.666L1202.98 35.774L1206.81 42H1208.99L1204.26 34.476L1208.66 30.12H1206.21L1201.04 35.202V25.368H1199.13V42ZM1215.31 42.264C1217.53 42.264 1219.38 40.988 1220.3 38.612L1218.63 38.084C1217.93 39.646 1216.78 40.416 1215.4 40.416C1213.35 40.416 1212.16 38.744 1211.99 36.522H1220.41V35.642C1220.41 32.298 1218.39 29.922 1215.33 29.922C1212.14 29.922 1210.03 32.496 1210.03 36.06C1210.03 39.514 1212.03 42.264 1215.31 42.264ZM1212.08 34.718C1212.36 33.046 1213.55 31.748 1215.33 31.748C1217.05 31.748 1218.19 32.958 1218.41 34.718H1212.08ZM1222.55 42H1224.44V35.356C1224.44 33.376 1225.65 32.034 1228.4 32.034V30.032C1226.53 29.878 1225.52 30.406 1224.44 31.77V30.12H1222.55V42ZM1234.47 42.264C1237.06 42.264 1239.13 40.856 1239.13 38.722C1239.13 36.83 1237.5 35.774 1234.75 35.07C1232.99 34.564 1231.76 34.08 1231.76 33.134C1231.76 32.386 1232.55 31.836 1234.07 31.836C1235.41 31.836 1236.47 32.276 1236.95 33.464L1238.8 32.98C1238.14 30.846 1236.38 29.9 1234.16 29.9C1231.56 29.9 1229.85 31.198 1229.85 33.2C1229.85 35.246 1231.67 36.104 1234.07 36.83C1235.9 37.336 1237.17 37.908 1237.17 38.876C1237.17 39.888 1235.81 40.416 1234.44 40.416C1232.95 40.416 1231.83 39.8 1231.41 38.304L1229.49 38.744C1230.2 41.12 1232.11 42.264 1234.47 42.264ZM1241.79 29.966C1243.22 28.998 1243.86 27.766 1243.86 26.336C1243.86 24.51 1242.84 24.18 1242.27 24.18C1241.46 24.18 1240.8 24.84 1240.8 25.632C1240.8 26.556 1241.7 27.304 1242.69 26.996C1242.65 27.898 1242.01 28.602 1241.17 29.086L1241.79 29.966ZM1252.8 42H1254.69V25.368H1252.8V42ZM1262.83 42.264C1266.26 42.264 1268.9 39.646 1268.9 36.104C1268.9 32.562 1266.26 29.922 1262.83 29.922C1259.39 29.922 1256.75 32.562 1256.75 36.104C1256.75 39.646 1259.39 42.264 1262.83 42.264ZM1262.83 40.438C1260.56 40.438 1258.73 38.546 1258.73 36.104C1258.73 33.662 1260.56 31.792 1262.83 31.792C1265.09 31.792 1266.92 33.662 1266.92 36.104C1266.92 38.546 1265.09 40.438 1262.83 40.438ZM1275.29 42.264C1277.88 42.264 1279.95 40.856 1279.95 38.722C1279.95 36.83 1278.32 35.774 1275.57 35.07C1273.81 34.564 1272.58 34.08 1272.58 33.134C1272.58 32.386 1273.37 31.836 1274.89 31.836C1276.23 31.836 1277.29 32.276 1277.77 33.464L1279.62 32.98C1278.96 30.846 1277.2 29.9 1274.98 29.9C1272.38 29.9 1270.67 31.198 1270.67 33.2C1270.67 35.246 1272.49 36.104 1274.89 36.83C1276.72 37.336 1277.99 37.908 1277.99 38.876C1277.99 39.888 1276.63 40.416 1275.26 40.416C1273.77 40.416 1272.65 39.8 1272.23 38.304L1270.31 38.744C1271.02 41.12 1272.93 42.264 1275.29 42.264ZM1286.44 42.22C1286.92 42.22 1287.47 42.176 1287.91 42.132V40.328H1286.52C1285.89 40.328 1285.45 40.13 1285.45 39.184V31.946H1287.8V30.12H1285.45V26.798H1283.55V30.12H1281.62V31.946H1283.55V39.426C1283.55 41.428 1284.39 42.22 1286.44 42.22ZM1048.66 51.942C1049.41 51.942 1050 51.348 1050 50.6C1050 49.852 1049.41 49.258 1048.66 49.258C1047.91 49.258 1047.32 49.852 1047.32 50.6C1047.32 51.348 1047.91 51.942 1048.66 51.942ZM1047.72 66H1049.61V54.34H1047.72V66ZM1052.67 66H1054.58V58.52C1055.02 56.958 1056.45 55.748 1058.32 55.748C1059.75 55.748 1060.74 56.452 1060.74 58.41V66H1062.64V58.3C1062.64 55.396 1061.12 53.9 1058.63 53.9C1057.29 53.9 1055.84 54.34 1054.58 55.616V54.12H1052.67V66ZM1069.9 66.22C1072.12 66.22 1074.19 64.856 1074.85 62.106L1073 61.666C1072.47 63.272 1071.44 64.35 1070.01 64.35C1068.07 64.35 1066.67 62.37 1066.67 59.994C1066.67 57.662 1068.01 55.77 1070.08 55.77C1071.26 55.77 1072.39 56.386 1072.96 57.904L1074.78 57.442C1074.04 55.22 1072.28 53.9 1070.03 53.9C1066.91 53.9 1064.73 56.474 1064.73 59.994C1064.73 63.272 1066.64 66.22 1069.9 66.22ZM1082.31 66.264C1085.75 66.264 1088.39 63.646 1088.39 60.104C1088.39 56.562 1085.75 53.922 1082.31 53.922C1078.88 53.922 1076.24 56.562 1076.24 60.104C1076.24 63.646 1078.88 66.264 1082.31 66.264ZM1082.31 64.438C1080.05 64.438 1078.22 62.546 1078.22 60.104C1078.22 57.662 1080.05 55.792 1082.31 55.792C1084.58 55.792 1086.41 57.662 1086.41 60.104C1086.41 62.546 1084.58 64.438 1082.31 64.438ZM1090.38 66H1092.29V58.344C1092.6 57.112 1093.98 55.726 1095.52 55.726C1096.65 55.726 1097.64 56.452 1097.64 58.344V66H1099.53V58.278C1099.88 56.848 1101.42 55.726 1102.87 55.726C1103.99 55.726 1104.92 56.386 1104.92 58.3V66H1106.81V58.08C1106.81 55.506 1105.29 53.878 1102.98 53.878C1101.64 53.878 1100.25 54.428 1099.02 55.946C1098.19 54.538 1097.09 53.9 1095.74 53.9C1094.69 53.9 1093.43 54.296 1092.29 55.594V54.12H1090.38V66ZM1114.2 66.264C1116.43 66.264 1118.27 64.988 1119.2 62.612L1117.53 62.084C1116.82 63.646 1115.68 64.416 1114.29 64.416C1112.25 64.416 1111.06 62.744 1110.88 60.522H1119.31V59.642C1119.31 56.298 1117.28 53.922 1114.23 53.922C1111.04 53.922 1108.92 56.496 1108.92 60.06C1108.92 63.514 1110.93 66.264 1114.2 66.264ZM1110.97 58.718C1111.26 57.046 1112.44 55.748 1114.23 55.748C1115.94 55.748 1117.09 56.958 1117.31 58.718H1110.97ZM1129.36 51.942C1130.11 51.942 1130.7 51.348 1130.7 50.6C1130.7 49.852 1130.11 49.258 1129.36 49.258C1128.61 49.258 1128.02 49.852 1128.02 50.6C1128.02 51.348 1128.61 51.942 1129.36 51.942ZM1128.41 66H1130.3V54.34H1128.41V66ZM1133.37 66H1135.28V58.52C1135.72 56.958 1137.15 55.748 1139.02 55.748C1140.45 55.748 1141.44 56.452 1141.44 58.41V66H1143.33V58.3C1143.33 55.396 1141.81 53.9 1139.33 53.9C1137.99 53.9 1136.53 54.34 1135.28 55.616V54.12H1133.37V66ZM1151.93 66H1162.74V64.064H1154.31C1154.84 62.854 1155.67 61.798 1158.49 59.664C1161.88 57.068 1162.63 55.594 1162.63 53.988C1162.63 51.524 1160.87 49.456 1157.54 49.456C1154.33 49.456 1152.26 51.392 1151.91 54.472L1153.8 54.824C1153.94 52.514 1155.23 51.282 1157.46 51.282C1159.39 51.282 1160.67 52.206 1160.67 53.944C1160.67 55.308 1159.88 56.408 1157.26 58.41C1153.65 61.16 1152.15 63.25 1151.93 66ZM1170.94 66.308C1174.68 66.308 1176.52 63.338 1176.52 58.014C1176.52 52.646 1174.68 49.676 1170.94 49.676C1167.2 49.676 1165.35 52.646 1165.35 58.014C1165.35 63.338 1167.2 66.308 1170.94 66.308ZM1170.94 64.504C1168.69 64.504 1167.26 62.48 1167.26 58.014C1167.26 53.438 1168.67 51.48 1170.94 51.48C1173.2 51.48 1174.61 53.438 1174.61 58.014C1174.61 62.48 1173.18 64.504 1170.94 64.504ZM1178.21 66H1189.01V64.064H1180.59C1181.11 62.854 1181.95 61.798 1184.77 59.664C1188.15 57.068 1188.9 55.594 1188.9 53.988C1188.9 51.524 1187.14 49.456 1183.82 49.456C1180.61 49.456 1178.54 51.392 1178.19 54.472L1180.08 54.824C1180.21 52.514 1181.51 51.282 1183.73 51.282C1185.67 51.282 1186.94 52.206 1186.94 53.944C1186.94 55.308 1186.15 56.408 1183.53 58.41C1179.93 61.16 1178.43 63.25 1178.21 66ZM1197.21 66.308C1200.95 66.308 1202.8 63.338 1202.8 58.014C1202.8 52.646 1200.95 49.676 1197.21 49.676C1193.47 49.676 1191.62 52.646 1191.62 58.014C1191.62 63.338 1193.47 66.308 1197.21 66.308ZM1197.21 64.504C1194.97 64.504 1193.54 62.48 1193.54 58.014C1193.54 53.438 1194.94 51.48 1197.21 51.48C1199.48 51.48 1200.88 53.438 1200.88 58.014C1200.88 62.48 1199.45 64.504 1197.21 64.504ZM1206.88 69.168C1208.31 68.2 1208.95 66.968 1208.95 65.538C1208.95 63.712 1207.94 63.382 1207.37 63.382C1206.55 63.382 1205.89 64.042 1205.89 64.834C1205.89 65.758 1206.79 66.506 1207.78 66.198C1207.74 67.1 1207.1 67.804 1206.27 68.288L1206.88 69.168ZM1223.95 56.166C1222.3 55.506 1221.4 54.868 1221.4 53.79C1221.4 52.756 1222.24 51.854 1223.95 51.568V56.166ZM1225.54 64.394V59.026C1227.34 59.708 1228.64 60.566 1228.64 61.82C1228.64 63.03 1227.41 64.13 1225.54 64.394ZM1223.95 68.618H1225.54V66.286C1228.29 66 1230.49 64.548 1230.49 61.732C1230.49 59.158 1228.68 57.992 1225.54 56.804V51.568C1227.08 51.81 1227.89 52.514 1228.4 54.032L1230.13 53.614C1229.5 51.084 1227.74 49.896 1225.54 49.698V47.828H1223.95V49.676C1221.25 49.962 1219.49 51.48 1219.49 53.878C1219.49 56.122 1221 57.266 1223.95 58.366V64.372C1222.26 64.064 1221.27 62.854 1220.87 61.072L1219.11 61.446C1219.68 64.218 1221.42 65.956 1223.95 66.264V68.618ZM1238.41 66.308C1241.6 66.308 1243.94 64.592 1243.94 61.6C1243.94 59.51 1242.81 58.102 1241.1 57.42C1242.53 56.65 1243.25 55.44 1243.25 53.856C1243.25 51.37 1241.45 49.566 1238.35 49.566C1235.27 49.566 1233.62 51.348 1233.13 53.9L1235.05 54.208C1235.29 52.624 1236.39 51.37 1238.48 51.37C1240.26 51.37 1241.34 52.294 1241.34 53.922C1241.34 55.44 1240.39 56.672 1238.57 56.672H1236.87V58.432H1238.5C1240.75 58.432 1241.98 59.796 1241.98 61.556C1241.98 63.536 1240.44 64.57 1238.39 64.57C1236.7 64.57 1235.18 63.866 1234.7 61.402L1232.74 61.754C1233.42 64.746 1235.36 66.308 1238.41 66.308ZM1248.4 66.264C1249.19 66.264 1249.85 65.604 1249.85 64.812C1249.85 64.02 1249.19 63.36 1248.4 63.36C1247.61 63.36 1246.95 64.02 1246.95 64.812C1246.95 65.604 1247.61 66.264 1248.4 66.264ZM1255.97 66H1257.98C1258.42 58.63 1260.4 55.55 1263.92 51.392V49.698H1252.85V51.48H1261.56C1258 55.66 1256.37 59.796 1255.97 66ZM1271.36 66H1273.25V51.326H1278.97V49.456H1265.64V51.326H1271.36V66ZM1280.58 66H1282.49V52.25L1291.38 66H1293.71V49.456H1291.82V63.14L1282.95 49.456H1280.58V66ZM1298.7 57.97C1299.49 57.97 1300.15 57.31 1300.15 56.518C1300.15 55.726 1299.49 55.066 1298.7 55.066C1297.91 55.066 1297.25 55.726 1297.25 56.518C1297.25 57.31 1297.91 57.97 1298.7 57.97ZM1298.7 66.264C1299.49 66.264 1300.15 65.604 1300.15 64.812C1300.15 64.02 1299.49 63.36 1298.7 63.36C1297.91 63.36 1297.25 64.02 1297.25 64.812C1297.25 65.604 1297.91 66.264 1298.7 66.264Z" fill="#01ACB7"/>
<defs>
<radialGradient id="paint0_radial" cx="0" cy="0" r="1" gradientUnits="userSpaceOnUse" gradientTransform="translate(837.5 214.5) rotate(90) scale(98.5 235.5)">
<stop offset="0.661458" stop-color="#14FF00"/>
<stop offset="1" stop-color="#14FF00" stop-opacity="0"/>
</radialGradient>
<radialGradient id="paint1_radial" cx="0" cy="0" r="1" gradientUnits="userSpaceOnUse" gradientTransform="translate(1367.5 133.5) rotate(90) scale(54.5 131.5)">
<stop offset="0.578125" stop-color="#0057FF"/>
<stop offset="1" stop-color="#000AFF" stop-opacity="0"/>
</radialGradient>
<radialGradient id="paint2_radial" cx="0" cy="0" r="1" gradientUnits="userSpaceOnUse" gradientTransform="translate(723.5 315) rotate(90) scale(59 142.5)">
<stop offset="0.380208" stop-color="#FF0000"/>
<stop offset="1" stop-color="#FF0000" stop-opacity="0"/>
</radialGradient>
<radialGradient id="paint3_radial" cx="0" cy="0" r="1" gradientUnits="userSpaceOnUse" gradientTransform="translate(733.5 245.5) rotate(90) scale(166.5 400.5)">
<stop offset="0.708333" stop-color="#0057FF"/>
<stop offset="1" stop-color="#0057FF" stop-opacity="0"/>
</radialGradient>
</defs>
</svg>
