<svg width="1284" height="727" viewBox="0 0 1284 727" fill="none" xmlns="http://www.w3.org/2000/svg">
<ellipse cx="53" cy="129" rx="53" ry="129" fill="url(#paint0_radial)"/>
<ellipse cx="1231" cy="129" rx="53" ry="129" fill="url(#paint1_radial)"/>
<ellipse cx="179.5" cy="432.5" rx="42.5" ry="104.5" fill="url(#paint2_radial)"/>
<path d="M33.2511 268.7L29.5911 259.94H24.8211L21.1611 268.7V272.36L24.7311 281H29.6811L33.2511 272.36V268.7ZM30.8211 271.82L28.0011 278.6H26.4111L23.5911 271.82V269.24L26.4411 262.37H27.9711L30.8211 269.24V271.82ZM36.0146 281H38.4446V278.03H36.0146V281ZM53.1437 268.7L49.4837 259.94H44.7137L41.0537 268.7V272.36L44.6237 281H49.5737L53.1437 272.36V268.7ZM50.7137 271.82L47.8937 278.6H46.3037L43.4837 271.82V269.24L46.3337 262.37H47.8637L50.7137 269.24V271.82ZM66.0472 264.98L60.7972 259.76L55.5772 264.98H55.5472L60.7972 270.23L66.0472 264.98ZM72.2572 260.93L69.7972 259.94L61.4872 280.01L63.9472 281L72.2572 260.93ZM62.2972 264.98L60.7972 266.48L59.3272 264.98L60.7972 263.51L62.2972 264.98ZM78.1372 275.75L72.8872 270.53L67.6672 275.75L72.8872 281L78.1372 275.75ZM74.3872 275.75L72.8872 277.25L71.4172 275.75L72.8872 274.28L74.3872 275.75Z" fill="#C4C4C4"/>
<path d="M1211.25 268.7L1207.59 259.94H1202.82L1199.16 268.7V272.36L1202.73 281H1207.68L1211.25 272.36V268.7ZM1208.82 271.82L1206 278.6H1204.41L1201.59 271.82V269.24L1204.44 262.37H1205.97L1208.82 269.24V271.82ZM1214.01 281H1216.44V278.03H1214.01V281ZM1231.14 268.7L1227.48 259.94H1222.71L1219.05 268.7V272.36L1222.62 281H1227.57L1231.14 272.36V268.7ZM1228.71 271.82L1225.89 278.6H1224.3L1221.48 271.82V269.24L1224.33 262.37H1225.86L1228.71 269.24V271.82ZM1244.05 264.98L1238.8 259.76L1233.58 264.98H1233.55L1238.8 270.23L1244.05 264.98ZM1250.26 260.93L1247.8 259.94L1239.49 280.01L1241.95 281L1250.26 260.93ZM1240.3 264.98L1238.8 266.48L1237.33 264.98L1238.8 263.51L1240.3 264.98ZM1256.14 275.75L1250.89 270.53L1245.67 275.75L1250.89 281L1256.14 275.75ZM1252.39 275.75L1250.89 277.25L1249.42 275.75L1250.89 274.28L1252.39 275.75Z" fill="#C4C4C4"/>
<path d="M133.044 567.73H146.004V565.09H133.044V567.73ZM162.165 574.57H155.985L152.325 573.04L160.965 560.5L159.885 557.89L155.145 555.94L150.405 557.89L148.815 561.7L151.095 562.63L152.265 559.75L155.145 558.58L158.025 559.75L158.205 560.2L148.605 574.18L155.385 577H162.165V574.57ZM174.738 557.89L169.998 555.94L165.258 557.89L163.278 562.66L165.228 567.4L169.998 569.38L171.528 568.72L168.498 576.04L170.808 577L176.718 562.66L174.738 557.89ZM172.878 565.51L169.998 566.68L167.118 565.51L165.948 562.63L167.118 559.75L169.998 558.58L172.878 559.75L174.048 562.63L172.878 565.51ZM178.132 577H180.562V574.03H178.132V577ZM188.781 577L195.111 555.94H183.171V558.37H191.811L186.381 576.28L188.781 577ZM208.164 560.98L202.914 555.76L197.694 560.98H197.664L202.914 566.23L208.164 560.98ZM214.374 556.93L211.914 555.94L203.604 576.01L206.064 577L214.374 556.93ZM204.414 560.98L202.914 562.48L201.444 560.98L202.914 559.51L204.414 560.98ZM220.254 571.75L215.004 566.53L209.784 571.75L215.004 577L220.254 571.75ZM216.504 571.75L215.004 573.25L213.534 571.75L215.004 570.28L216.504 571.75Z" fill="#C4C4C4"/>
<path d="M15.0901 684H17.1541V675.744H26.3701V673.704H17.1541V667.992H27.5221V665.952H15.0901V684ZM29.5745 684H42.3665V681.936H31.6385V675.744H41.3585V673.704H31.6385V667.992H42.1505V665.952H29.5745V684ZM44.9026 684H52.5826C55.8466 684 58.4626 681.912 58.4626 678.768C58.4626 676.968 57.5986 675.288 55.3906 674.448C56.9506 673.512 57.6946 672.144 57.6946 670.44C57.6946 667.704 55.7986 665.952 52.2226 665.952H44.9026V684ZM46.9666 673.512V667.992H52.1506C54.5266 667.992 55.6546 669 55.6546 670.488C55.6546 672.24 54.0706 673.512 51.7426 673.512H46.9666ZM46.9666 681.936V675.504H51.7906C54.5986 675.504 56.3266 676.944 56.3266 678.816C56.3266 680.808 54.3586 681.936 52.1266 681.936H46.9666ZM72.3269 684H74.3429V666.12H72.6149C72.3269 667.824 70.5269 669.864 67.1909 669.864V671.64C68.5829 671.64 71.2949 671.112 72.3269 669.888V684ZM84.4858 675.936C82.2298 675.936 80.8378 674.112 80.8378 671.928C80.8378 669.648 82.3738 668.016 84.5578 668.016C86.8618 668.016 88.4458 669.768 88.4458 672.72C88.0618 674.28 86.6218 675.936 84.4858 675.936ZM84.4858 684.288C88.5418 684.288 90.8218 681.048 90.8218 674.88C90.8218 668.88 88.5898 666.024 84.7498 666.024C81.0298 666.024 78.7018 668.712 78.7018 672.12C78.7018 675.48 80.9338 678 84.3658 678C85.7818 678 87.3898 677.568 88.8058 675.528C88.5658 679.152 87.4378 682.32 84.3898 682.32C82.7578 682.32 81.6778 681.432 81.0778 679.8L79.1338 680.232C79.9018 682.704 81.6058 684.288 84.4858 684.288Z" fill="#C4C4C4"/>
<path d="M138.34 684H140.404V669.768L146.068 684H147.988L153.556 669.768V684H155.62V665.952H152.932L147.028 681.048L141.028 665.952H138.34V684ZM162.381 676.728L165.597 668.448L168.741 676.728H162.381ZM157.293 684H159.549L161.565 678.744H169.557L171.597 684H173.805L166.797 665.952H164.349L157.293 684ZM177.576 674.184V667.992H182.952C185.28 667.992 186.672 669.264 186.672 671.04C186.672 672.912 185.136 674.184 182.952 674.184H177.576ZM175.512 684H177.576V676.224H182.784C185.856 676.224 185.688 682.2 186.888 684H189.24C187.2 680.064 187.992 676.992 185.688 675.648C187.728 674.808 188.784 673.152 188.784 671.136C188.784 668.256 186.6 665.952 183 665.952H175.512V684ZM203.077 684H205.093V666.12H203.365C203.077 667.824 201.277 669.864 197.941 669.864V671.64C199.333 671.64 202.045 671.112 203.077 669.888V684ZM215.524 684.288C219.1 684.288 221.596 682.152 221.596 679.032C221.596 677.208 220.732 675.672 218.668 674.424C220.132 673.536 221.068 672.288 221.068 670.608C221.068 667.992 218.812 666.096 215.524 666.096C212.236 666.096 209.98 667.992 209.98 670.608C209.98 672.288 210.916 673.536 212.38 674.424C210.316 675.672 209.452 677.208 209.452 679.032C209.452 682.152 211.948 684.288 215.524 684.288ZM215.524 673.512C213.604 673.512 212.092 672.264 212.092 670.68C212.092 669.168 213.46 668.064 215.524 668.064C217.588 668.064 218.956 669.168 218.956 670.68C218.956 672.264 217.444 673.512 215.524 673.512ZM215.524 682.296C213.1 682.296 211.54 681.048 211.54 679.032C211.54 676.944 213.22 675.432 215.524 675.432C217.828 675.432 219.508 676.944 219.508 679.032C219.508 681.048 217.948 682.296 215.524 682.296Z" fill="#C4C4C4"/>
<path d="M1188.39 684H1190.48V669L1200.17 684H1202.72V665.952H1200.65V680.88L1190.98 665.952H1188.39V684ZM1214.04 684.456C1219.2 684.456 1222.85 680.472 1222.85 675.048C1222.85 669.72 1219.39 665.52 1214.04 665.52C1208.66 665.52 1205.16 669.696 1205.16 675.048C1205.16 680.472 1208.85 684.456 1214.04 684.456ZM1214.04 682.416C1210.22 682.416 1207.41 679.368 1207.41 675.024C1207.41 670.8 1210.01 667.584 1214.04 667.584C1218.07 667.584 1220.64 670.8 1220.64 675.024C1220.64 679.392 1217.83 682.416 1214.04 682.416ZM1230.51 684H1232.79L1239.3 665.952H1237.04L1231.64 681.24L1226.22 665.952H1223.96L1230.51 684ZM1253.77 684.336C1257.25 684.336 1259.79 682.464 1259.79 679.2C1259.79 676.92 1258.57 675.384 1256.7 674.64C1258.26 673.8 1259.05 672.48 1259.05 670.752C1259.05 668.04 1257.08 666.072 1253.7 666.072C1250.34 666.072 1248.54 668.016 1248.01 670.8L1250.1 671.136C1250.36 669.408 1251.56 668.04 1253.84 668.04C1255.79 668.04 1256.96 669.048 1256.96 670.824C1256.96 672.48 1255.93 673.824 1253.94 673.824H1252.09V675.744H1253.87C1256.31 675.744 1257.66 677.232 1257.66 679.152C1257.66 681.312 1255.98 682.44 1253.75 682.44C1251.9 682.44 1250.24 681.672 1249.71 678.984L1247.58 679.368C1248.32 682.632 1250.43 684.336 1253.77 684.336ZM1267.93 684.336C1272.01 684.336 1274.03 681.096 1274.03 675.288C1274.03 669.432 1272.01 666.192 1267.93 666.192C1263.85 666.192 1261.83 669.432 1261.83 675.288C1261.83 681.096 1263.85 684.336 1267.93 684.336ZM1267.93 682.368C1265.48 682.368 1263.92 680.16 1263.92 675.288C1263.92 670.296 1265.46 668.16 1267.93 668.16C1270.4 668.16 1271.94 670.296 1271.94 675.288C1271.94 680.16 1270.38 682.368 1267.93 682.368Z" fill="#C4C4C4"/>
<path d="M100 677H127" stroke="#C4C4C4"/>
<path d="M239 677H1175" stroke="#C4C4C4"/>
<path d="M55 133L179.543 433L1231 133" stroke="#C4C4C4" stroke-width="2"/>
<defs>
<radialGradient id="paint0_radial" cx="0" cy="0" r="1" gradientUnits="userSpaceOnUse" gradientTransform="translate(53 129) rotate(90) scale(129 53)">
<stop offset="0.635417" stop-color="#DC0501"/>
<stop offset="1" stop-color="#DC0501" stop-opacity="0"/>
</radialGradient>
<radialGradient id="paint1_radial" cx="0" cy="0" r="1" gradientUnits="userSpaceOnUse" gradientTransform="translate(1231 129) rotate(90) scale(129 53)">
<stop offset="0.635417" stop-color="#DC0501"/>
<stop offset="1" stop-color="#DC0501" stop-opacity="0"/>
</radialGradient>
<radialGradient id="paint2_radial" cx="0" cy="0" r="1" gradientUnits="userSpaceOnUse" gradientTransform="translate(179.5 432.5) rotate(90) scale(104.5 42.5)">
<stop offset="0.635417" stop-color="#DC0501"/>
<stop offset="1" stop-color="#DC0501" stop-opacity="0"/>
</radialGradient>
</defs>
</svg>
