<svg width="1377" height="625" viewBox="0 0 1377 625" fill="none" xmlns="http://www.w3.org/2000/svg">
<path d="M64.215 6.35H67.71V11H68.925V0.47H67.71V5.12H64.215V0.47H63V11H64.215V6.35ZM70.5146 11H71.7296V0.47H70.5146V11ZM81.6913 1.91L78.2113 0.47L74.4913 2L72.9463 5.72L74.4763 9.455L78.2113 11L81.4663 9.65V5.12H78.2113V6.35H80.2363V8.81L78.2113 9.65L75.4213 8.51L74.2813 5.72L75.4213 2.93L78.2113 1.775L81.2263 3.035L81.6913 1.91ZM84.1076 6.35H87.6026V11H88.8176V0.47H87.6026V5.12H84.1076V0.47H82.8926V11H84.1076V6.35ZM100.977 3.44H101.592L103.497 11H106.032L108.147 0.784999L107.007 0.47L105.027 9.785H104.502L102.552 2.225H100.017L98.0073 9.785H97.4823L95.5023 0.47L94.3623 0.784999L96.4773 11H99.0123L100.977 3.44ZM113.352 0.47H110.832L108.177 10.685L109.317 11L110.022 8.36H114.162L114.882 11L116.022 10.685L113.352 0.47ZM113.832 7.145H110.352L111.822 1.685H112.362L113.832 7.145ZM125.197 1.91L121.717 0.47L117.997 2L116.452 5.72L117.982 9.455L121.717 11L124.972 9.65V5.12H121.717V6.35H123.742V8.81L121.717 9.65L118.927 8.51L117.787 5.72L118.927 2.93L121.717 1.775L124.732 3.035L125.197 1.91ZM131.24 9.785H127.745V6.35H131.24V5.12H127.745V1.685H131.24V0.47H126.53V11H131.24V9.785ZM139.484 0.965L138.254 0.47L136.784 4.01V11.93L138.254 15.47L139.484 14.975L138.119 11.675V4.265L139.484 0.965ZM146.575 3.32L146.02 2.225L140.695 4.805V7.445L146.02 10.025L146.56 8.93L141.91 6.62V5.63L146.575 3.32ZM151.326 12.755V10.76L153.651 9.785L149.661 3.965L150.726 3.53L153.171 4.535L153.651 3.425L151.326 2.465V0.47H150.111V2.465L147.801 3.425L151.791 9.215L150.726 9.665L148.281 8.645L147.801 9.785L150.111 10.76V12.755H151.326ZM155.806 10.025L158.176 11L160.546 10.025L161.536 7.655L160.561 5.27L158.176 4.295L157.411 4.61L158.926 0.95L157.771 0.47L154.816 7.655L155.806 10.025ZM156.736 6.23L158.176 5.63L159.616 6.23L160.201 7.655L159.616 9.095L158.176 9.68L156.736 9.095L156.151 7.655L156.736 6.23ZM168.288 4.85L166.458 0.47H164.073L162.243 4.85V6.68L164.028 11H166.503L168.288 6.68V4.85ZM167.073 6.41L165.663 9.8H164.868L163.458 6.41V5.12L164.883 1.685H165.648L167.073 5.12V6.41ZM174.41 3.755L176.855 1.325L175.985 0.47L170.885 5.57V0.47H169.67V11H170.885V7.28L173.48 4.685L176.09 11L177.215 10.52L174.41 3.755ZM177.904 0.965L179.269 4.265V11.675L177.904 14.975L179.134 15.47L180.604 11.93V4.01L179.134 0.47L177.904 0.965Z" fill="#FF0000"/>
<path d="M73.335 15.47H71.085L69.12 21.95H68.76L66.855 15.47H64.605L63 25.835L64.17 26L65.595 16.685H65.865L67.815 23.165H70.065L72.075 16.685H72.345L73.785 26L74.94 25.85L73.335 15.47ZM76.0957 26H77.3107V15.47H76.0957V26ZM85.6393 17L81.9343 15.47H79.0693V26H81.9343L85.6543 24.455L87.1993 20.72L85.6393 17ZM85.8643 20.72L84.7093 23.51L81.6193 24.785H80.2843V16.685H81.6943L84.7093 17.93L85.8643 20.72ZM94.9557 17L91.2507 15.47H88.3857V26H91.2507L94.9707 24.455L96.5157 20.72L94.9557 17ZM95.1807 20.72L94.0257 23.51L90.9357 24.785H89.6007V16.685H91.0107L94.0257 17.93L95.1807 20.72ZM102.412 24.785H98.9171V15.47H97.7021V26H102.412V24.785ZM108.301 24.785H104.806V21.35H108.301V20.12H104.806V16.685H108.301V15.47H103.591V26H108.301V24.785ZM120.46 18.44H121.075L122.98 26H125.515L127.63 15.785L126.49 15.47L124.51 24.785H123.985L122.035 17.225H119.5L117.49 24.785H116.965L114.985 15.47L113.845 15.785L115.96 26H118.495L120.46 18.44ZM132.834 15.47H130.314L127.659 25.685L128.799 26L129.504 23.36H133.644L134.364 26L135.504 25.685L132.834 15.47ZM133.314 22.145H129.834L131.304 16.685H131.844L133.314 22.145ZM144.68 16.91L141.2 15.47L137.48 17L135.935 20.72L137.465 24.455L141.2 26L144.455 24.65V20.12H141.2V21.35H143.225V23.81L141.2 24.65L138.41 23.51L137.27 20.72L138.41 17.93L141.2 16.775L144.215 18.035L144.68 16.91ZM150.723 24.785H147.228V21.35H150.723V20.12H147.228V16.685H150.723V15.47H146.013V26H150.723V24.785ZM158.967 15.965L157.737 15.47L156.267 19.01V26.93L157.737 30.47L158.967 29.975L157.602 26.675V19.265L158.967 15.965ZM163.748 27.755V25.76L166.073 24.785L162.083 18.965L163.148 18.53L165.593 19.535L166.073 18.425L163.748 17.465V15.47H162.533V17.465L160.223 18.425L164.213 24.215L163.148 24.665L160.703 23.645L160.223 24.785L162.533 25.76V27.755H163.748ZM174.108 24.785H171.018L169.188 24.02L173.508 17.75L172.968 16.445L170.598 15.47L168.228 16.445L167.433 18.35L168.573 18.815L169.158 17.375L170.598 16.79L172.038 17.375L172.128 17.6L167.328 24.59L170.718 26H174.108V24.785ZM177.47 26L180.635 15.47H174.665V16.685H178.985L176.27 25.64L177.47 26ZM186.832 18.755L189.277 16.325L188.407 15.47L183.307 20.57V15.47H182.092V26H183.307V22.28L185.902 19.685L188.512 26L189.637 25.52L186.832 18.755ZM190.866 22.715H198.621V21.395H190.866V22.715ZM203.533 27.755V25.76L205.858 24.785L201.868 18.965L202.933 18.53L205.378 19.535L205.858 18.425L203.533 17.465V15.47H202.318V17.465L200.008 18.425L203.998 24.215L202.933 24.665L200.488 23.645L200.008 24.785L202.318 25.76V27.755H203.533ZM208.013 25.025L210.383 26L212.753 25.025L213.743 22.655L212.768 20.27L210.383 19.295L209.618 19.61L211.133 15.95L209.978 15.47L207.023 22.655L208.013 25.025ZM208.943 21.23L210.383 20.63L211.823 21.23L212.408 22.655L211.823 24.095L210.383 24.68L208.943 24.095L208.358 22.655L208.943 21.23ZM220.495 19.85L218.665 15.47H216.28L214.45 19.85V21.68L216.235 26H218.71L220.495 21.68V19.85ZM219.28 21.41L217.87 24.8H217.075L215.665 21.41V20.12L217.09 16.685H217.855L219.28 20.12V21.41ZM226.617 18.755L229.062 16.325L228.192 15.47L223.092 20.57V15.47H221.877V26H223.092V22.28L225.687 19.685L228.297 26L229.422 25.52L226.617 18.755ZM230.111 15.965L231.476 19.265V26.675L230.111 29.975L231.341 30.47L232.811 26.93V19.01L231.341 15.47L230.111 15.965Z" fill="#14FF00"/>
<path d="M67.71 39.785H64.215V30.47H63V41H67.71V39.785ZM76.526 32L72.806 30.47L69.086 32L67.541 35.72L69.071 39.455L72.806 41L76.541 39.455L78.071 35.72L76.526 32ZM76.751 35.72L75.596 38.51L72.806 39.65L70.016 38.51L68.876 35.72L70.016 32.93L72.806 31.775L75.596 32.93L76.751 35.72ZM85.9041 33.44H86.5191L88.4241 41H90.9591L93.0741 30.785L91.9341 30.47L89.9541 39.785H89.4291L87.4791 32.225H84.9441L82.9341 39.785H82.4091L80.4291 30.47L79.2891 30.785L81.4041 41H83.9391L85.9041 33.44ZM105.255 33.44H105.87L107.775 41H110.31L112.425 30.785L111.285 30.47L109.305 39.785H108.78L106.83 32.225H104.295L102.285 39.785H101.76L99.7796 30.47L98.6396 30.785L100.755 41H103.29L105.255 33.44ZM117.629 30.47H115.109L112.454 40.685L113.594 41L114.299 38.36H118.439L119.159 41L120.299 40.685L117.629 30.47ZM118.109 37.145H114.629L116.099 31.685H116.639L118.109 37.145ZM129.474 31.91L125.994 30.47L122.274 32L120.729 35.72L122.259 39.455L125.994 41L129.249 39.65V35.12H125.994V36.35H128.019V38.81L125.994 39.65L123.204 38.51L122.064 35.72L123.204 32.93L125.994 31.775L129.009 33.035L129.474 31.91ZM135.518 39.785H132.023V36.35H135.518V35.12H132.023V31.685H135.518V30.47H130.808V41H135.518V39.785ZM143.762 30.965L142.532 30.47L141.062 34.01V41.93L142.532 45.47L143.762 44.975L142.397 41.675V34.265L143.762 30.965ZM150.853 33.32L150.298 32.225L144.973 34.805V37.445L150.298 40.025L150.838 38.93L146.188 36.62V35.63L150.853 33.32ZM155.603 42.755V40.76L157.928 39.785L153.938 33.965L155.003 33.53L157.448 34.535L157.928 33.425L155.603 32.465V30.47H154.388V32.465L152.078 33.425L156.068 39.215L155.003 39.665L152.558 38.645L152.078 39.785L154.388 40.76V42.755H155.603ZM165.964 39.785H162.874L161.044 39.02L165.364 32.75L164.824 31.445L162.454 30.47L160.084 31.445L159.289 33.35L160.429 33.815L161.014 32.375L162.454 31.79L163.894 32.375L163.984 32.6L159.184 39.59L162.574 41H165.964V39.785ZM169.326 41L172.491 30.47H166.521V31.685H170.841L168.126 40.64L169.326 41ZM178.687 33.755L181.132 31.325L180.262 30.47L175.162 35.57V30.47H173.947V41H175.162V37.28L177.757 34.685L180.367 41L181.492 40.52L178.687 33.755ZM182.182 30.965L183.547 34.265V41.675L182.182 44.975L183.412 45.47L184.882 41.93V34.01L183.412 30.47L182.182 30.965Z" fill="#0057FF"/>
<path d="M60.3024 582.456C63.5904 582.456 65.9424 580.416 65.9424 576.576V563.952H63.8784V576.648C63.8784 579.312 62.2224 580.392 60.3264 580.392C58.5744 580.392 57.1824 579.48 56.8224 577.392L54.8304 577.608C55.2144 580.872 57.3984 582.456 60.3024 582.456ZM72.7091 574.728L75.9251 566.448L79.0691 574.728H72.7091ZM67.6211 582H69.8771L71.8931 576.744H79.8851L81.9251 582H84.1331L77.1251 563.952H74.6771L67.6211 582ZM85.8401 582H87.9281V567L97.6241 582H100.168V563.952H98.1041V578.88L88.4321 563.952H85.8401V582ZM114.507 582H116.523V564.12H114.795C114.507 565.824 112.707 567.864 109.371 567.864V569.64C110.763 569.64 113.475 569.112 114.507 567.888V582ZM126.737 582.336C130.745 582.336 133.025 579.576 133.025 576.072C133.025 572.496 130.625 569.976 127.217 569.976C126.161 569.976 124.817 570.216 123.545 571.152L123.905 566.256H131.945V564.312H122.105L121.505 573.768H123.545C124.169 572.64 125.489 571.992 126.977 571.992C129.233 571.992 130.913 573.504 130.913 576.072C130.913 578.688 129.161 580.344 126.713 580.344C125.033 580.344 123.665 579.576 122.897 577.512L120.857 577.992C121.793 580.968 123.905 582.336 126.737 582.336ZM66.5799 606H78.3639V603.888H69.1719C69.7479 602.568 70.6599 601.416 73.7319 599.088C77.4279 596.256 78.2439 594.648 78.2439 592.896C78.2439 590.208 76.3239 587.952 72.6999 587.952C69.1959 587.952 66.9399 590.064 66.5559 593.424L68.6199 593.808C68.7639 591.288 70.1799 589.944 72.6039 589.944C74.7159 589.944 76.1079 590.952 76.1079 592.848C76.1079 594.336 75.2439 595.536 72.3879 597.72C68.4519 600.72 66.8199 603 66.5799 606ZM87.3088 606.336C91.3888 606.336 93.4048 603.096 93.4048 597.288C93.4048 591.432 91.3888 588.192 87.3088 588.192C83.2288 588.192 81.2128 591.432 81.2128 597.288C81.2128 603.096 83.2288 606.336 87.3088 606.336ZM87.3088 604.368C84.8608 604.368 83.3008 602.16 83.3008 597.288C83.3008 592.296 84.8368 590.16 87.3088 590.16C89.7808 590.16 91.3168 592.296 91.3168 597.288C91.3168 602.16 89.7568 604.368 87.3088 604.368ZM95.244 606H107.028V603.888H97.836C98.412 602.568 99.324 601.416 102.396 599.088C106.092 596.256 106.908 594.648 106.908 592.896C106.908 590.208 104.988 587.952 101.364 587.952C97.86 587.952 95.604 590.064 95.22 593.424L97.284 593.808C97.428 591.288 98.844 589.944 101.268 589.944C103.38 589.944 104.772 590.952 104.772 592.848C104.772 594.336 103.908 595.536 101.052 597.72C97.116 600.72 95.484 603 95.244 606ZM115.973 606.336C120.053 606.336 122.069 603.096 122.069 597.288C122.069 591.432 120.053 588.192 115.973 588.192C111.893 588.192 109.877 591.432 109.877 597.288C109.877 603.096 111.893 606.336 115.973 606.336ZM115.973 604.368C113.525 604.368 111.965 602.16 111.965 597.288C111.965 592.296 113.501 590.16 115.973 590.16C118.445 590.16 119.981 592.296 119.981 597.288C119.981 602.16 118.421 604.368 115.973 604.368Z" fill="#C4C4C4"/>
<path d="M362.545 574.728L365.761 566.448L368.905 574.728H362.545ZM357.457 582H359.713L361.729 576.744H369.721L371.761 582H373.969L366.961 563.952H364.513L357.457 582ZM375.676 582H377.764V574.224H382.996C386.596 574.224 388.78 571.92 388.78 569.064C388.78 566.256 386.668 563.952 382.996 563.952H375.676V582ZM377.764 572.184V565.992H382.972C385.228 565.992 386.644 567.168 386.644 569.064C386.644 570.984 385.156 572.184 382.972 572.184H377.764ZM393.115 572.184V565.992H398.491C400.819 565.992 402.211 567.264 402.211 569.04C402.211 570.912 400.675 572.184 398.491 572.184H393.115ZM391.051 582H393.115V574.224H398.323C401.395 574.224 401.227 580.2 402.427 582H404.779C402.739 578.064 403.531 574.992 401.227 573.648C403.267 572.808 404.323 571.152 404.323 569.136C404.323 566.256 402.139 563.952 398.539 563.952H391.051V582ZM418.616 582H420.632V564.12H418.904C418.616 565.824 416.816 567.864 413.48 567.864V569.64C414.872 569.64 417.584 569.112 418.616 567.888V582ZM431.063 582.288C434.639 582.288 437.135 580.152 437.135 577.032C437.135 575.208 436.271 573.672 434.207 572.424C435.671 571.536 436.607 570.288 436.607 568.608C436.607 565.992 434.351 564.096 431.063 564.096C427.775 564.096 425.519 565.992 425.519 568.608C425.519 570.288 426.455 571.536 427.919 572.424C425.855 573.672 424.991 575.208 424.991 577.032C424.991 580.152 427.487 582.288 431.063 582.288ZM431.063 571.512C429.143 571.512 427.631 570.264 427.631 568.68C427.631 567.168 428.999 566.064 431.063 566.064C433.127 566.064 434.495 567.168 434.495 568.68C434.495 570.264 432.983 571.512 431.063 571.512ZM431.063 580.296C428.639 580.296 427.079 579.048 427.079 577.032C427.079 574.944 428.759 573.432 431.063 573.432C433.367 573.432 435.047 574.944 435.047 577.032C435.047 579.048 433.487 580.296 431.063 580.296Z" fill="#C4C4C4"/>
<path d="M498.861 582.456C502.149 582.456 504.501 580.416 504.501 576.576V563.952H502.437V576.648C502.437 579.312 500.781 580.392 498.885 580.392C497.133 580.392 495.741 579.48 495.381 577.392L493.389 577.608C493.773 580.872 495.957 582.456 498.861 582.456ZM514.484 582.456C518.66 582.456 521.564 580.104 521.564 575.376V563.904H519.476V575.424C519.476 578.88 517.508 580.392 514.484 580.392C511.364 580.392 509.612 578.784 509.612 575.4V563.904H507.524V575.352C507.524 580.128 510.356 582.456 514.484 582.456ZM524.61 582H526.698V567L536.394 582H538.938V563.952H536.874V578.88L527.202 563.952H524.61V582ZM553.276 582H555.292V564.12H553.564C553.276 565.824 551.476 567.864 548.14 567.864V569.64C549.532 569.64 552.244 569.112 553.276 567.888V582Z" fill="#C4C4C4"/>
<path d="M697.861 582.456C701.149 582.456 703.501 580.416 703.501 576.576V563.952H701.437V576.648C701.437 579.312 699.781 580.392 697.885 580.392C696.133 580.392 694.741 579.48 694.381 577.392L692.389 577.608C692.773 580.872 694.957 582.456 697.861 582.456ZM713.484 582.456C717.66 582.456 720.564 580.104 720.564 575.376V563.904H718.476V575.424C718.476 578.88 716.508 580.392 713.484 580.392C710.364 580.392 708.612 578.784 708.612 575.4V563.904H706.524V575.352C706.524 580.128 709.356 582.456 713.484 582.456ZM723.61 582H725.698V567L735.394 582H737.938V563.952H735.874V578.88L726.202 563.952H723.61V582ZM752.276 582H754.292V564.12H752.564C752.276 565.824 750.476 567.864 747.14 567.864V569.64C748.532 569.64 751.244 569.112 752.276 567.888V582Z" fill="#C4C4C4"/>
<path d="M997.227 582H999.315V567L1009.01 582H1011.55V563.952H1009.49V578.88L999.819 563.952H997.227V582ZM1022.87 582.456C1028.03 582.456 1031.68 578.472 1031.68 573.048C1031.68 567.72 1028.23 563.52 1022.87 563.52C1017.5 563.52 1013.99 567.696 1013.99 573.048C1013.99 578.472 1017.69 582.456 1022.87 582.456ZM1022.87 580.416C1019.06 580.416 1016.25 577.368 1016.25 573.024C1016.25 568.8 1018.84 565.584 1022.87 565.584C1026.91 565.584 1029.47 568.8 1029.47 573.024C1029.47 577.392 1026.67 580.416 1022.87 580.416ZM1039.35 582H1041.63L1048.13 563.952H1045.88L1040.48 579.24L1035.05 563.952H1032.8L1039.35 582ZM1061.19 582H1063.21V564.12H1061.48C1061.19 565.824 1059.39 567.864 1056.05 567.864V569.64C1057.45 569.64 1060.16 569.112 1061.19 567.888V582ZM1073.42 582.336C1077.43 582.336 1079.71 579.576 1079.71 576.072C1079.71 572.496 1077.31 569.976 1073.9 569.976C1072.85 569.976 1071.5 570.216 1070.23 571.152L1070.59 566.256H1078.63V564.312H1068.79L1068.19 573.768H1070.23C1070.85 572.64 1072.17 571.992 1073.66 571.992C1075.92 571.992 1077.6 573.504 1077.6 576.072C1077.6 578.688 1075.85 580.344 1073.4 580.344C1071.72 580.344 1070.35 579.576 1069.58 577.512L1067.54 577.992C1068.48 580.968 1070.59 582.336 1073.42 582.336Z" fill="#C4C4C4"/>
<path d="M1250.35 579.456C1253.63 579.456 1255.99 577.416 1255.99 573.576V560.952H1253.92V573.648C1253.92 576.312 1252.27 577.392 1250.37 577.392C1248.62 577.392 1247.23 576.48 1246.87 574.392L1244.87 574.608C1245.26 577.872 1247.44 579.456 1250.35 579.456ZM1262.75 571.728L1265.97 563.448L1269.11 571.728H1262.75ZM1257.66 579H1259.92L1261.94 573.744H1269.93L1271.97 579H1274.18L1267.17 560.952H1264.72L1257.66 579ZM1275.88 579H1277.97V564L1287.67 579H1290.21V560.952H1288.15V575.88L1278.48 560.952H1275.88V579ZM1299.68 579H1311.46V576.888H1302.27C1302.85 575.568 1303.76 574.416 1306.83 572.088C1310.53 569.256 1311.34 567.648 1311.34 565.896C1311.34 563.208 1309.42 560.952 1305.8 560.952C1302.29 560.952 1300.04 563.064 1299.65 566.424L1301.72 566.808C1301.86 564.288 1303.28 562.944 1305.7 562.944C1307.81 562.944 1309.21 563.952 1309.21 565.848C1309.21 567.336 1308.34 568.536 1305.49 570.72C1301.55 573.72 1299.92 576 1299.68 579ZM1320.69 579.336C1324.7 579.336 1326.98 576.576 1326.98 573.072C1326.98 569.496 1324.58 566.976 1321.17 566.976C1320.12 566.976 1318.77 567.216 1317.5 568.152L1317.86 563.256H1325.9V561.312H1316.06L1315.46 570.768H1317.5C1318.13 569.64 1319.45 568.992 1320.93 568.992C1323.19 568.992 1324.87 570.504 1324.87 573.072C1324.87 575.688 1323.12 577.344 1320.67 577.344C1318.99 577.344 1317.62 576.576 1316.85 574.512L1314.81 574.992C1315.75 577.968 1317.86 579.336 1320.69 579.336ZM1260.57 603H1272.36V600.888H1263.16C1263.74 599.568 1264.65 598.416 1267.72 596.088C1271.42 593.256 1272.24 591.648 1272.24 589.896C1272.24 587.208 1270.32 584.952 1266.69 584.952C1263.19 584.952 1260.93 587.064 1260.55 590.424L1262.61 590.808C1262.76 588.288 1264.17 586.944 1266.6 586.944C1268.71 586.944 1270.1 587.952 1270.1 589.848C1270.1 591.336 1269.24 592.536 1266.38 594.72C1262.44 597.72 1260.81 600 1260.57 603ZM1281.3 603.336C1285.38 603.336 1287.4 600.096 1287.4 594.288C1287.4 588.432 1285.38 585.192 1281.3 585.192C1277.22 585.192 1275.21 588.432 1275.21 594.288C1275.21 600.096 1277.22 603.336 1281.3 603.336ZM1281.3 601.368C1278.85 601.368 1277.29 599.16 1277.29 594.288C1277.29 589.296 1278.83 587.16 1281.3 587.16C1283.77 587.16 1285.31 589.296 1285.31 594.288C1285.31 599.16 1283.75 601.368 1281.3 601.368ZM1289.24 603H1301.02V600.888H1291.83C1292.4 599.568 1293.32 598.416 1296.39 596.088C1300.08 593.256 1300.9 591.648 1300.9 589.896C1300.9 587.208 1298.98 584.952 1295.36 584.952C1291.85 584.952 1289.6 587.064 1289.21 590.424L1291.28 590.808C1291.42 588.288 1292.84 586.944 1295.26 586.944C1297.37 586.944 1298.76 587.952 1298.76 589.848C1298.76 591.336 1297.9 592.536 1295.04 594.72C1291.11 597.72 1289.48 600 1289.24 603ZM1308.41 603H1310.42V585.12H1308.69C1308.41 586.824 1306.61 588.864 1303.27 588.864V590.64C1304.66 590.64 1307.37 590.112 1308.41 588.888V603Z" fill="#C4C4C4"/>
<path d="M138 574L352 574" stroke="#C4C4C4"/>
<path d="M442 574H491" stroke="#C4C4C4"/>
<path d="M565 574L690 574" stroke="#C4C4C4"/>
<path d="M1082 574L1243 574" stroke="#C4C4C4"/>
<path d="M758 574L993 574" stroke="#C4C4C4"/>
<path d="M82 89.1163L395.513 194L526.267 99.6047H727.847L1039.87 71H1289" stroke="#FF4900" stroke-width="2"/>
<path d="M82 89L391.914 298L523.602 204.9L723.611 159.3L1039.96 133.65L1287 148.85" stroke="#14FF00" stroke-width="2"/>
<path d="M362.449 418.421H375.409V415.781H362.449V418.421ZM388 408.581L383.26 406.631L377.14 409.151L378.07 411.401L383.26 409.271L386.14 410.441L387.31 413.321L386.2 416.021H383.23V418.451H386.29L387.31 420.941L386.14 423.821L383.26 424.991L378.97 423.221L378.04 425.501L383.23 427.661H383.29L388.03 425.711L389.98 420.971L388.39 417.161L389.98 413.351L388 408.581ZM398.294 427.691L404.624 406.631H392.684V409.061H401.324L395.894 426.971L398.294 427.691ZM417.677 411.671L412.427 406.451L407.207 411.671H407.177L412.427 416.921L417.677 411.671ZM423.887 407.621L421.427 406.631L413.117 426.701L415.577 427.691L423.887 407.621ZM413.927 411.671L412.427 413.171L410.957 411.671L412.427 410.201L413.927 411.671ZM429.767 422.441L424.517 417.221L419.297 422.441L424.517 427.691L429.767 422.441ZM426.017 422.441L424.517 423.941L423.047 422.441L424.517 420.971L426.017 422.441Z" fill="#0057FF"/>
<path d="M490.151 313.749H503.111V311.109H490.151V313.749ZM519.272 320.589H513.092L509.432 319.059L518.072 306.519L516.992 303.909L512.252 301.959L507.512 303.909L505.922 307.719L508.202 308.649L509.372 305.769L512.252 304.599L515.132 305.769L515.312 306.219L505.712 320.199L512.492 323.019H519.272V320.589ZM522.365 321.069L527.105 323.019L531.845 321.069L533.825 316.329L531.875 311.559L527.105 309.609L525.575 310.239L528.605 302.919L526.295 301.959L520.385 316.329L522.365 321.069ZM524.225 313.479L527.105 312.279L529.985 313.479L531.155 316.329L529.985 319.209L527.105 320.379L524.225 319.209L523.055 316.329L524.225 313.479ZM545.379 306.999L540.129 301.779L534.909 306.999H534.879L540.129 312.249L545.379 306.999ZM551.589 302.949L549.129 301.959L540.819 322.029L543.279 323.019L551.589 302.949ZM541.629 306.999L540.129 308.499L538.659 306.999L540.129 305.529L541.629 306.999ZM557.469 317.769L552.219 312.549L546.999 317.769L552.219 323.019L557.469 317.769ZM553.719 317.769L552.219 319.269L550.749 317.769L552.219 316.299L553.719 317.769Z" fill="#0057FF"/>
<path d="M689.128 256.655H702.088V254.015H689.128V256.655ZM711.919 244.865L704.509 246.335L705.019 248.705L709.489 247.835V265.925H711.919V244.865ZM730.823 246.815L726.083 244.865L721.343 246.815L719.363 251.585L721.313 256.325L726.083 258.305L727.613 257.645L724.583 264.965L726.893 265.925L732.803 251.585L730.823 246.815ZM728.963 254.435L726.083 255.605L723.203 254.435L722.033 251.555L723.203 248.675L726.083 247.505L728.963 248.675L730.133 251.555L728.963 254.435ZM744.356 249.905L739.106 244.685L733.886 249.905H733.856L739.106 255.155L744.356 249.905ZM750.566 245.855L748.106 244.865L739.796 264.935L742.256 265.925L750.566 245.855ZM740.606 249.905L739.106 251.405L737.636 249.905L739.106 248.435L740.606 249.905ZM756.446 260.675L751.196 255.455L745.976 260.675L751.196 265.925L756.446 260.675ZM752.696 260.675L751.196 262.175L749.726 260.675L751.196 259.205L752.696 260.675Z" fill="#0057FF"/>
<path d="M1003.43 262.364H1016.39V259.724H1003.43V262.364ZM1032.55 269.204H1026.37L1022.71 267.674L1031.35 255.134L1030.27 252.524L1025.53 250.574L1020.79 252.524L1019.2 256.334L1021.48 257.264L1022.65 254.384L1025.53 253.214L1028.41 254.384L1028.59 254.834L1018.99 268.814L1025.77 271.634H1032.55V269.204ZM1045.76 259.334L1042.1 250.574H1037.33L1033.67 259.334V262.994L1037.24 271.634H1042.19L1045.76 262.994V259.334ZM1043.33 262.454L1040.51 269.234H1038.92L1036.1 262.454V259.874L1038.95 253.004H1040.48L1043.33 259.874V262.454ZM1058.66 255.614L1053.41 250.394L1048.19 255.614H1048.16L1053.41 260.864L1058.66 255.614ZM1064.87 251.564L1062.41 250.574L1054.1 270.644L1056.56 271.634L1064.87 251.564ZM1054.91 255.614L1053.41 257.114L1051.94 255.614L1053.41 254.144L1054.91 255.614ZM1070.75 266.384L1065.5 261.164L1060.28 266.384L1065.5 271.634L1070.75 266.384ZM1067 266.384L1065.5 267.884L1064.03 266.384L1065.5 264.914L1067 266.384Z" fill="#0057FF"/>
<path d="M1251.91 300.427H1264.87V297.787H1251.91V300.427ZM1281.03 307.267H1274.85L1271.19 305.737L1279.83 293.197L1278.75 290.587L1274.01 288.637L1269.27 290.587L1267.68 294.397L1269.96 295.327L1271.13 292.447L1274.01 291.277L1276.89 292.447L1277.07 292.897L1267.47 306.877L1274.25 309.697H1281.03V307.267ZM1294.59 303.187L1291.98 302.647V288.637H1289.52V302.167L1284.75 301.207L1285.62 292.447L1283.22 292.147L1282.14 303.187L1289.52 304.657V309.697H1291.98V305.137L1294.05 305.557L1294.59 303.187ZM1307.13 293.677L1301.88 288.457L1296.66 293.677H1296.63L1301.88 298.927L1307.13 293.677ZM1313.34 289.627L1310.88 288.637L1302.57 308.707L1305.03 309.697L1313.34 289.627ZM1303.38 293.677L1301.88 295.177L1300.41 293.677L1301.88 292.207L1303.38 293.677ZM1319.22 304.447L1313.97 299.227L1308.75 304.447L1313.97 309.697L1319.22 304.447ZM1315.47 304.447L1313.97 305.947L1312.5 304.447L1313.97 302.977L1315.47 304.447Z" fill="#0057FF"/>
<path d="M362.449 285.202H375.409V282.562H362.449V285.202ZM391.57 292.042H385.39L381.73 290.512L390.37 277.972L389.29 275.362L384.55 273.412L379.81 275.362L378.22 279.172L380.5 280.102L381.67 277.222L384.55 276.052L387.43 277.222L387.61 277.672L378.01 291.652L384.79 294.472H391.57V292.042ZM402.854 275.362L398.114 273.412L391.994 275.932L392.924 278.182L398.114 276.052L400.994 277.222L402.164 280.102L401.054 282.802H398.084V285.232H401.144L402.164 287.722L400.994 290.602L398.114 291.772L393.824 290.002L392.894 292.282L398.084 294.442H398.144L402.884 292.492L404.834 287.752L403.244 283.942L404.834 280.132L402.854 275.362ZM417.677 278.452L412.427 273.232L407.207 278.452H407.177L412.427 283.702L417.677 278.452ZM423.887 274.402L421.427 273.412L413.117 293.482L415.577 294.472L423.887 274.402ZM413.927 278.452L412.427 279.952L410.957 278.452L412.427 276.982L413.927 278.452ZM429.767 289.222L424.517 284.002L419.297 289.222L424.517 294.472L429.767 289.222ZM426.017 289.222L424.517 290.722L423.047 289.222L424.517 287.752L426.017 289.222Z" fill="#14FF00"/>
<path d="M490.151 193.852H503.111V191.212H490.151V193.852ZM512.942 182.062L505.532 183.532L506.042 185.902L510.512 185.032V203.122H512.942V182.062ZM534.125 200.692H527.945L524.285 199.162L532.925 186.622L531.845 184.012L527.105 182.062L522.365 184.012L520.775 187.822L523.055 188.752L524.225 185.872L527.105 184.702L529.985 185.872L530.165 186.322L520.565 200.302L527.345 203.122H534.125V200.692ZM545.379 187.102L540.129 181.882L534.909 187.102H534.879L540.129 192.352L545.379 187.102ZM551.589 183.052L549.129 182.062L540.819 202.132L543.279 203.122L551.589 183.052ZM541.629 187.102L540.129 188.602L538.659 187.102L540.129 185.632L541.629 187.102ZM557.469 197.872L552.219 192.652L546.999 197.872L552.219 203.122L557.469 197.872ZM553.719 197.872L552.219 199.372L550.749 197.872L552.219 196.402L553.719 197.872Z" fill="#14FF00"/>
<path d="M696.555 148.177H709.515V145.537H696.555V148.177ZM717.546 157.447L723.876 136.387H711.936V138.817H720.576L715.146 156.727L717.546 157.447ZM736.929 141.427L731.679 136.207L726.459 141.427H726.429L731.679 146.677L736.929 141.427ZM743.139 137.377L740.679 136.387L732.369 156.457L734.829 157.447L743.139 137.377ZM733.179 141.427L731.679 142.927L730.209 141.427L731.679 139.957L733.179 141.427ZM749.019 152.197L743.769 146.977L738.549 152.197L743.769 157.447L749.019 152.197ZM745.269 152.197L743.769 153.697L742.299 152.197L743.769 150.727L745.269 152.197Z" fill="#14FF00"/>
<path d="M1010.86 121.533H1023.82V118.893H1010.86V121.533ZM1038.51 124.083L1036.53 119.313L1028.82 116.133V112.173H1037.97V109.743H1026.39V117.753L1034.67 121.173L1035.87 124.053L1034.67 126.933L1031.79 128.103L1027.02 126.123L1026 128.373L1031.76 130.773H1031.82L1036.56 128.823L1038.51 124.083ZM1051.23 114.783L1045.98 109.563L1040.76 114.783H1040.73L1045.98 120.033L1051.23 114.783ZM1057.44 110.733L1054.98 109.743L1046.67 129.813L1049.13 130.803L1057.44 110.733ZM1047.48 114.783L1045.98 116.283L1044.51 114.783L1045.98 113.313L1047.48 114.783ZM1063.32 125.553L1058.07 120.333L1052.85 125.553L1058.07 130.803L1063.32 125.553ZM1059.57 125.553L1058.07 127.053L1056.6 125.553L1058.07 124.083L1059.57 125.553Z" fill="#14FF00"/>
<path d="M1259.33 136.758H1272.29V134.118H1259.33V136.758ZM1280.32 146.028L1286.65 124.968H1274.71V127.398H1283.35L1277.92 145.308L1280.32 146.028ZM1299.71 130.008L1294.46 124.788L1289.24 130.008H1289.21L1294.46 135.258L1299.71 130.008ZM1305.92 125.958L1303.46 124.968L1295.15 145.038L1297.61 146.028L1305.92 125.958ZM1295.96 130.008L1294.46 131.508L1292.99 130.008L1294.46 128.538L1295.96 130.008ZM1311.8 140.778L1306.55 135.558L1301.33 140.778L1306.55 146.028L1311.8 140.778ZM1308.05 140.778L1306.55 142.278L1305.08 140.778L1306.55 139.308L1308.05 140.778Z" fill="#14FF00"/>
<path d="M362.449 180.53H375.409V177.89H362.449V180.53ZM385.24 168.74L377.83 170.21L378.34 172.58L382.81 171.71V189.8H385.24V168.74ZM406.424 187.37H400.244L396.584 185.84L405.224 173.3L404.144 170.69L399.404 168.74L394.664 170.69L393.074 174.5L395.354 175.43L396.524 172.55L399.404 171.38L402.284 172.55L402.464 173L392.864 186.98L399.644 189.8H406.424V187.37ZM417.677 173.78L412.427 168.56L407.207 173.78H407.177L412.427 179.03L417.677 173.78ZM423.887 169.73L421.427 168.74L413.117 188.81L415.577 189.8L423.887 169.73ZM413.927 173.78L412.427 175.28L410.957 173.78L412.427 172.31L413.927 173.78ZM429.767 184.55L424.517 179.33L419.297 184.55L424.517 189.8L429.767 184.55ZM426.017 184.55L424.517 186.05L423.047 184.55L424.517 183.08L426.017 184.55Z" fill="#FF0000"/>
<path d="M497.577 91.0831H510.537V88.4431H497.577V91.0831ZM526.698 97.9231H520.518L516.858 96.3931L525.498 83.8531L524.418 81.2431L519.678 79.2931L514.938 81.2431L513.348 85.0531L515.628 85.9831L516.798 83.1031L519.678 81.9331L522.558 83.1031L522.738 83.5531L513.138 97.5331L519.918 100.353H526.698V97.9231ZM537.952 84.3331L532.702 79.1131L527.482 84.3331H527.452L532.702 89.5831L537.952 84.3331ZM544.162 80.2831L541.702 79.2931L533.392 99.3631L535.852 100.353L544.162 80.2831ZM534.202 84.3331L532.702 85.8331L531.232 84.3331L532.702 82.8631L534.202 84.3331ZM550.042 95.1031L544.792 89.8831L539.572 95.1031L544.792 100.353L550.042 95.1031ZM546.292 95.1031L544.792 96.6031L543.322 95.1031L544.792 93.6331L546.292 95.1031Z" fill="#FF0000"/>
<path d="M696.555 87.2769H709.515V84.6369H696.555V87.2769ZM719.346 75.4869L711.936 76.9569L712.446 79.3269L716.916 78.4569V96.5469H719.346V75.4869ZM736.929 80.5269L731.679 75.3069L726.459 80.5269H726.429L731.679 85.7769L736.929 80.5269ZM743.139 76.4769L740.679 75.4869L732.369 95.5569L734.829 96.5469L743.139 76.4769ZM733.179 80.5269L731.679 82.0269L730.209 80.5269L731.679 79.0569L733.179 80.5269ZM749.019 91.2969L743.769 86.0769L738.549 91.2969L743.769 96.5469L749.019 91.2969ZM745.269 91.2969L743.769 92.7969L742.299 91.2969L743.769 89.8269L745.269 91.2969Z" fill="#FF0000"/>
<path d="M1023.82 56.09H1018.66V50.93H1016.02V56.09H1010.86V58.73H1016.02V63.89H1018.66V58.73H1023.82V56.09ZM1033.65 46.94L1026.24 48.41L1026.75 50.78L1031.22 49.91V68H1033.65V46.94ZM1051.23 51.98L1045.98 46.76L1040.76 51.98H1040.73L1045.98 57.23L1051.23 51.98ZM1057.44 47.93L1054.98 46.94L1046.67 67.01L1049.13 68L1057.44 47.93ZM1047.48 51.98L1045.98 53.48L1044.51 51.98L1045.98 50.51L1047.48 51.98ZM1063.32 62.75L1058.07 57.53L1052.85 62.75L1058.07 68L1063.32 62.75ZM1059.57 62.75L1058.07 64.25L1056.6 62.75L1058.07 61.28L1059.57 62.75Z" fill="#FF0000"/>
<path d="M1272.29 56.09H1267.13V50.93H1264.49V56.09H1259.33V58.73H1264.49V63.89H1267.13V58.73H1272.29V56.09ZM1282.12 46.94L1274.71 48.41L1275.22 50.78L1279.69 49.91V68H1282.12V46.94ZM1299.71 51.98L1294.46 46.76L1289.24 51.98H1289.21L1294.46 57.23L1299.71 51.98ZM1305.92 47.93L1303.46 46.94L1295.15 67.01L1297.61 68L1305.92 47.93ZM1295.96 51.98L1294.46 53.48L1292.99 51.98L1294.46 50.51L1295.96 51.98ZM1311.8 62.75L1306.55 57.53L1301.33 62.75L1306.55 68L1311.8 62.75ZM1308.05 62.75L1306.55 64.25L1305.08 62.75L1306.55 61.28L1308.05 62.75Z" fill="#FF0000"/>
<path d="M82.2815 74.7312L78.6215 65.9712H73.8515L70.1915 74.7312V78.3912L73.7615 87.0312H78.7115L82.2815 78.3912V74.7312ZM79.8515 77.8512L77.0315 84.6312H75.4415L72.6215 77.8512V75.2712L75.4715 68.4012H77.0015L79.8515 75.2712V77.8512ZM95.1851 71.0112L89.9351 65.7912L84.7151 71.0112H84.6851L89.9351 76.2612L95.1851 71.0112ZM101.395 66.9612L98.9351 65.9712L90.6251 86.0413L93.0851 87.0312L101.395 66.9612ZM91.4351 71.0112L89.9351 72.5112L88.4651 71.0112L89.9351 69.5412L91.4351 71.0112ZM107.275 81.7812L102.025 76.5612L96.8051 81.7812L102.025 87.0312L107.275 81.7812ZM103.525 81.7812L102.025 83.2812L100.555 81.7812L102.025 80.3112L103.525 81.7812Z" fill="#C4C4C4"/>
<path d="M82 89L394.879 433L523.595 325.022L723.105 265.778L1038.46 277.244L1285 311.644" stroke="#0057FF" stroke-width="2"/>
</svg>
